<svg xmlns="http://www.w3.org/2000/svg" width="469.35052" height="109.51599" viewBox="0 0 469.35052 109.51599"><defs><style>.a{fill:#fff;}.b{fill:#00b451;}</style></defs><path class="a" d="M453.55055,18.97169H393.81611a49.71109,49.71109,0,0,0-69.10534,0H15.8a10.8,10.8,0,0,0-10.8,10.8v49.3916a10.8,10.8,0,0,0,10.8,10.8H324.10133a49.75547,49.75547,0,0,0,70.32422,0h59.125a10.8,10.8,0,0,0,10.8-10.8V29.77168A10.8,10.8,0,0,0,453.55055,18.97169Z"/><path class="b" d="M453.55054,13.97174H395.78162a54.71015,54.71015,0,0,0-73.0365,0H15.8A15.81785,15.81785,0,0,0,0,29.77167v49.3916A15.818,15.818,0,0,0,15.8,94.96332H322.08807a54.7592,54.7592,0,0,0,74.35065,0h57.11182a15.818,15.818,0,0,0,15.8-15.8V29.77167A15.81785,15.81785,0,0,0,453.55054,13.97174Zm10.8,65.19153a10.8,10.8,0,0,1-10.8,10.8h-59.125a49.75547,49.75547,0,0,1-70.32422,0H15.8a10.8,10.8,0,0,1-10.8-10.8V29.77167A10.79991,10.79991,0,0,1,15.8,18.97174h308.9107a49.711,49.711,0,0,1,69.10541,0h59.73444a10.79994,10.79994,0,0,1,10.8,10.79993Z"/><polygon class="b" points="64.334 59.219 86.438 59.219 86.438 48.852 64.334 48.852 64.334 39.347 87.734 39.347 87.734 28.98 53.102 28.98 53.102 79.955 89.03 79.955 89.03 69.587 64.334 69.587 64.334 59.219"/><path class="b" d="M134.821,34.77557a26.62641,26.62641,0,0,0-9.61181-4.42871,48.138,48.138,0,0,0-11.62793-1.36718H96.73315V79.95526H115.093A35.46949,35.46949,0,0,0,125.96509,78.299a27.85261,27.85261,0,0,0,9.144-4.85937,23.46735,23.46735,0,0,0,6.29981-7.91993,24.24211,24.24211,0,0,0,2.34033-10.9082,26.68906,26.68906,0,0,0-2.41211-11.87988A21.70489,21.70489,0,0,0,134.821,34.77557ZM130.68091,61.343a12.599,12.599,0,0,1-3.85205,4.82422,15.46124,15.46124,0,0,1-5.7959,2.62792,31.31837,31.31837,0,0,1-7.23584.792h-5.832V39.34686h6.624a24.80081,24.80081,0,0,1,6.73193.90039,16.57675,16.57675,0,0,1,5.58008,2.7002,13.03319,13.03319,0,0,1,3.77979,4.57226,14.24835,14.24835,0,0,1,1.4043,6.51563A17.104,17.104,0,0,1,130.68091,61.343Z"/><polygon class="b" points="178.668 62.243 178.524 62.243 166.788 28.98 149.796 28.98 149.796 79.955 161.028 79.955 161.028 40.86 161.172 40.86 174.06 79.955 182.628 79.955 196.02 40.86 196.164 40.86 196.164 79.955 207.396 79.955 207.396 28.98 190.476 28.98 178.668 62.243"/><rect class="b" x="216.10669" y="28.97968" width="11.23193" height="50.97559"/><path class="b" d="M263.38159,53.09882a23.36044,23.36044,0,0,0-5.65234-2.44727q-3.02344-.86425-5.65186-1.72852a16.33937,16.33937,0,0,1-4.356-2.08789,4.05689,4.05689,0,0,1-1.728-3.52832,4.09974,4.09974,0,0,1,.72021-2.44726,5.32874,5.32874,0,0,1,1.87159-1.62012,9.69492,9.69492,0,0,1,2.44824-.90039,11.63138,11.63138,0,0,1,2.52-.28809,13.32079,13.32079,0,0,1,4.42773.82813,8.00573,8.00573,0,0,1,3.708,2.55664l7.7041-8.4248a19.28483,19.28483,0,0,0-7.27148-4.10352,28.619,28.619,0,0,0-8.35254-1.22461,25.51507,25.51507,0,0,0-7.272,1.04492,18.79528,18.79528,0,0,0-6.228,3.13184,15.63229,15.63229,0,0,0-4.31983,5.18359,15.31317,15.31317,0,0,0-1.62011,7.2002,11.93845,11.93845,0,0,0,1.76416,6.83984,13.8536,13.8536,0,0,0,4.42773,4.17578,25.77582,25.77582,0,0,0,5.76025,2.52051q3.09449.936,5.75977,1.87207a16.2883,16.2883,0,0,1,4.42822,2.26758,4.31293,4.31293,0,0,1,1.76416,3.63574,4.12741,4.12741,0,0,1-.68408,2.376,5.43693,5.43693,0,0,1-1.80029,1.65625,9.012,9.012,0,0,1-2.52.97168,12.25649,12.25649,0,0,1-2.772.32422,12.42272,12.42272,0,0,1-5.436-1.25977,11.64553,11.64553,0,0,1-4.356-3.56445l-7.9917,8.78418a23.06812,23.06812,0,0,0,7.91993,4.89648,28.731,28.731,0,0,0,16.73974.50391,18.216,18.216,0,0,0,6.26416-3.09571,15.04614,15.04614,0,0,0,4.28418-5.25683,16.40022,16.40022,0,0,0,1.584-7.416,12.946,12.946,0,0,0-1.72852-7.12793A13.40565,13.40565,0,0,0,263.38159,53.09882Z"/><polygon class="b" points="273.568 38.915 288.112 38.915 288.112 79.955 299.344 79.955 299.344 38.915 313.888 38.915 313.888 28.98 273.568 28.98 273.568 38.915"/><polygon class="b" points="443.11 64.404 442.967 64.404 421.295 28.98 406.03 28.98 406.03 79.955 417.262 79.955 417.262 43.667 417.406 43.667 439.654 79.955 454.343 79.955 454.343 28.98 443.11 28.98 443.11 64.404"/><path class="b" d="M34.74542,77.97491A4.988,4.988,0,0,0,35.937,76.86865a6.76,6.76,0,0,0,.81488-1.33838,6.30469,6.30469,0,0,0,.46668-1.44146,7.31449,7.31449,0,0,0,.14447-1.41065,7.67751,7.67751,0,0,0-.53772-2.9256,6.78637,6.78637,0,0,0-1.49952-2.28595,6.87317,6.87317,0,0,0-2.26934-1.49829,7.82258,7.82258,0,0,0-5.70661,0,6.75058,6.75058,0,0,0-3.76886,3.78424,7.72324,7.72324,0,0,0-.53772,2.9256,7.31449,7.31449,0,0,0,.14447,1.41065,6.42632,6.42632,0,0,0,.46668,1.44146,6.87392,6.87392,0,0,0,.81488,1.33838,4.95572,4.95572,0,0,0,1.19391,1.10626v.05921H23.39142v1.92114H45.39819V78.03412H34.74542Zm-2.41626-.26178a5.744,5.744,0,0,1-4.24975,0A5.17134,5.17134,0,0,1,26.362,76.57849,5.40445,5.40445,0,0,1,25.21069,74.861a5.53989,5.53989,0,0,1-.42163-2.18286,5.23383,5.23383,0,0,1,.42163-2.14032A4.86665,4.86665,0,0,1,26.362,68.9223a5.09666,5.09666,0,0,1,1.71741-1.03283,6.39084,6.39084,0,0,1,4.24975,0,5.14309,5.14309,0,0,1,1.71741,1.03283,4.89382,4.89382,0,0,1,1.14893,1.61554,5.19513,5.19513,0,0,1,.42163,2.14032A5.498,5.498,0,0,1,35.1955,74.861a5.437,5.437,0,0,1-1.14893,1.71747A5.21965,5.21965,0,0,1,32.32916,77.71313Z"/><path class="b" d="M28.77588,57.08984a10.63944,10.63944,0,0,0,.5827,2.76563,5.25176,5.25176,0,0,0,1.41187,2.15332,3.73361,3.73361,0,0,0,2.60577.8587,3.64812,3.64812,0,0,0,1.73163-.392A3.88815,3.88815,0,0,0,36.361,61.42725a4.43982,4.43982,0,0,0,.75568-1.49952,6.13913,6.13913,0,0,0,.24634-1.74585,6.071,6.071,0,0,0-.59455-2.8095A5.21236,5.21236,0,0,0,34.80225,53.379v-.05927c.36956,0,.74859-.01422,1.1347-.0426.38849-.0296.74854-.07342,1.07782-.13147V51.28253c-.36957.05805-.83856.11255-1.41186.15991q-.85988.07289-1.644.07343H27.87567a5.21282,5.21282,0,0,0-2.15564.40747A4.39537,4.39537,0,0,0,24.22052,53a4.34241,4.34241,0,0,0-.88593,1.58594,6.26417,6.26417,0,0,0-.29138,1.90692q0,3.84293,1.978,5.76349l1.3692-1.16431a6.01217,6.01217,0,0,1-1.60138-4.16211q0-3.49291,3.52252-3.49292h.34821v.96057C28.65979,55.21252,28.70007,56.11029,28.77588,57.08984ZM30.23273,53.437h.99017a5.75636,5.75636,0,0,1,1.70319.24756,3.71063,3.71063,0,0,1,2.34283,2.06683,4.38839,4.38839,0,0,1,.34821,1.81928,5.07191,5.07191,0,0,1-.13025,1.14892,3.16458,3.16458,0,0,1-.43592,1.034,2.298,2.298,0,0,1-.78643.74146,2.26355,2.26355,0,0,1-1.15125.27716,1.95445,1.95445,0,0,1-1.599-.713,4.62443,4.62443,0,0,1-.85992-1.7174,10.39182,10.39182,0,0,1-.34821-2.0965q-.07461-1.09085-.07342-1.81927Z"/><path class="b" d="M35.8493,38.37341a4.387,4.387,0,0,0-1.01861-.81488v-.058c.36951,0,.73431-.0047,1.092-.01538.36005-.00946.72247-.03314,1.092-.07227V35.43365q-.75687.0587-1.60138.10187c-.5614.02844-1.02808.04383-1.39758.04383H23.39142v1.92114H30.3772a6.05136,6.05136,0,0,1,2.91137.5816,4.65516,4.65516,0,0,1,1.57288,1.32416,3.574,3.574,0,0,1,.63965,1.41187,7.23393,7.23393,0,0,1,.116.81488,4.56247,4.56247,0,0,1-.30555,1.79083,2.61751,2.61751,0,0,1-.90258,1.1347,3.80084,3.80084,0,0,1-1.46869.597,10.36246,10.36246,0,0,1-2.00879.17529h-7.5401V47.252h8.64636A5.67905,5.67905,0,0,0,35.98193,46,4.97134,4.97134,0,0,0,37.363,42.12805a5.08734,5.08734,0,0,0-.18714-1.35376A6.05806,6.05806,0,0,0,36.65,39.47968,5.28882,5.28882,0,0,0,35.8493,38.37341Z"/><rect class="b" x="15.008" y="28.97968" width="22.00677" height="1.9212"/><path class="b" d="M359.38228,14.77034a39.86883,39.86883,0,1,0,39.86881,39.86882A39.86883,39.86883,0,0,0,359.38228,14.77034Zm20.00661,17.445c2.33546,3.03337,2.59219,7.62451,2.26131,11.47085-.01248-.30844-.02861-.61693-.05136-.92541a20.78709,20.78709,0,0,0-2.06463-7.91965,14.66327,14.66327,0,0,0-2.42058-3.43334,13.77616,13.77616,0,0,0-2.14918-1.8389C376.04474,29.43505,377.58573,29.87329,379.38889,32.21531Zm-42.25266.41527c6.03019,4.01271,11.78532-7.57758,26.19854-7.57758,10.26365,0,11.2411,2.39219,10.77456,3.96509-.11208-.06669-.22412-.13348-.33781-.19709a16.97812,16.97812,0,0,0-3.89576-1.56079,23.09265,23.09265,0,0,0-4.0875-.6736c-.34267-.0325-.6847-.04579-1.027-.06047-.34261-.01993-.68391-.02069-1.02555-.02388a19.64649,19.64649,0,0,0-2.08121.073,15.21607,15.21607,0,0,0-4.1637.93123,12.73669,12.73669,0,0,0-3.717,2.24078,17.84276,17.84276,0,0,0-2.8245,3.15556c-.80788,1.12332-1.51169,2.27912-2.18981,3.42042-.67792,1.14194-1.33045,2.27288-2.01077,3.36593A30.67334,30.67334,0,0,1,342.12945,45.64l-1.70519,1.65467,2.27843.76912.00049.00018c.15779.04331.26934.06819.40028.09877l.37489.08193q.37252.07767.74172.14359.73945.13218,1.47692.22835,1.47607.19355,2.95393.26159a33.1536,33.1536,0,0,0,5.8826-.23569,27.24253,27.24253,0,0,0,5.67707-1.36092,22.80823,22.80823,0,0,0,5.13425-2.61285,22.45082,22.45082,0,0,1-5.33991,1.91032,26.1457,26.1457,0,0,1-5.5729.60315,31.32219,31.32219,0,0,1-5.54247-.48677c-.91082-.16065-1.8134-.35847-2.70139-.59315-.15579-.04127-.31046-.08513-.46529-.12869a37.33433,37.33433,0,0,0,3.295-4.91718c1.3398-2.32555,2.47592-4.695,3.86982-6.79593a15.60133,15.60133,0,0,1,2.358-2.84539,10.56374,10.56374,0,0,1,3.022-1.97679,13.18811,13.18811,0,0,1,3.57922-.93195,17.45556,17.45556,0,0,1,1.89663-.13334c.32105-.008.64251-.01865.96276-.01059.32068.00281.64185.00389.96112.02363a21.36007,21.36007,0,0,1,3.79391.491,15.37266,15.37266,0,0,1,3.57178,1.2897c.10217.05266.20287.10819.30361.16349l-.01755.01855.01824-.01818a12.50516,12.50516,0,0,1,2.76956,2.05176,13.32745,13.32745,0,0,1,2.30468,3.0465,19.67525,19.67525,0,0,1,2.19269,7.41572,29.06041,29.06041,0,0,1,.14843,3.92276,28.11177,28.11177,0,0,1-.36788,3.92039H338.179c-5.06288-12.03814,4.98745-14.04449,4.98745-14.04449S337.13623,36.63948,337.13623,32.63058Zm46.12578,26.997c-.23769,3.63025-1.90451,6.477-3.723,6.35837l-.00367-.00043c.14773,2.04931.41077,4.36058.608,5.95745a2.82646,2.82646,0,0,1-1.54583,2.87513l-18.05609,9.01142a2.8211,2.8211,0,0,1-2.51907,0l-18.05607-9.01142a2.82639,2.82639,0,0,1-1.54585-2.87513c.19722-1.59687.46025-3.90814.608-5.95745l-.00363.00043c-1.81847.11862-3.4853-2.72812-3.723-6.35837s1.04383-6.66927,2.86232-6.78789a1.68,1.68,0,0,1,.1992,0h.0735s4.82932,0,5.002,12.47738a.70392.70392,0,0,0,.70328.694h11.81212a.70208.70208,0,0,0,.70335-.6759c.0701-1.9133.45964-7.22927,2.62432-7.22927s2.55426,5.316,2.62435,7.22927a.70206.70206,0,0,0,.70332.6759h11.81216a.70394.70394,0,0,0,.70329-.694c.17267-12.47738,5.002-12.47738,5.002-12.47738h.07351a1.67984,1.67984,0,0,1,.19919,0C382.21818,52.95827,383.49967,55.99731,383.262,59.62754Z"/></svg>