<?xml version="1.0" encoding="UTF-8"?><svg id="Layer_1" xmlns="http://www.w3.org/2000/svg" viewBox="0 0 72 72"><defs><style>.cls-1{fill:#fff;fill-rule:evenodd;}</style></defs><path class="cls-1" d="M36,.89C16.12,.89,0,17.01,0,36.89c0,15.9,10.31,29.4,24.62,34.16,1.8,.33,2.46-.78,2.46-1.74,0-.85-.03-3.12-.05-6.12-10.01,2.18-12.13-4.83-12.13-4.83-1.64-4.16-4-5.27-4-5.27-3.27-2.23,.25-2.19,.25-2.19,3.61,.25,5.51,3.71,5.51,3.71,3.21,5.5,8.43,3.91,10.48,2.99,.33-2.33,1.26-3.91,2.29-4.81-7.99-.91-16.4-4-16.4-17.79,0-3.93,1.4-7.14,3.71-9.66-.37-.91-1.61-4.57,.35-9.53,0,0,3.02-.97,9.9,3.69,2.87-.8,5.95-1.2,9.01-1.21,3.06,.01,6.14,.41,9.01,1.21,6.87-4.66,9.89-3.69,9.89-3.69,1.96,4.96,.73,8.62,.36,9.53,2.31,2.52,3.7,5.73,3.7,9.66,0,13.83-8.42,16.87-16.44,17.76,1.29,1.11,2.44,3.31,2.44,6.67,0,4.81-.04,8.7-.04,9.88,0,.96,.65,2.08,2.48,1.73,14.29-4.77,24.6-18.25,24.6-34.15C72,17.01,55.88,.89,36,.89Z"/></svg>