<?xml version="1.0" encoding="UTF-8"?><svg id="Layer_1" xmlns="http://www.w3.org/2000/svg" viewBox="0 0 72 72"><defs><style>.cls-1{fill:#fff;}</style></defs><path class="cls-1" d="M36,2.48c18.48,0,33.52,15.04,33.52,33.52s-15.04,33.52-33.52,33.52S2.48,54.48,2.48,36,17.52,2.48,36,2.48m0-2.48C16.12,0,0,16.12,0,36s16.12,36,36,36,36-16.12,36-36S55.88,0,36,0h0Z"/><path class="cls-1" d="M55.08,34.4c-.06,0-.12,0-.18,0h-.07s-4.52,0-4.52,11.9h-11.31c-.34,0-.62-.27-.64-.61-.06-1.73-.42-6.53-2.37-6.53s-2.31,4.8-2.37,6.53c-.01,.34-.29,.61-.64,.61h-11.31c0-11.9-4.52-11.9-4.52-11.9h-.07c-.06,0-.12,0-.18,0-1.64,.11-2.8,2.85-2.59,6.13,.21,3.28,1.72,5.85,3.36,5.75,0,0,0,0,0,0-.23,3.22-.78,7.15-.78,7.17l19.08,9.52,19.08-9.52s-.55-3.95-.78-7.17c0,0,0,0,0,0,1.64,.11,3.15-2.47,3.36-5.75,.21-3.28-.94-6.03-2.59-6.13Z"/><path class="cls-1" d="M54.3,18.14c1.15,2.25,1.68,4.72,1.87,7.16,.02,.28,.04,.56,.05,.84,.3-3.48,.07-7.63-2.04-10.37-1.63-2.12-3.02-2.51-4-2.39,.7,.49,1.36,1.04,1.94,1.66,.89,.92,1.61,1.99,2.19,3.1Z"/><path class="cls-1" d="M16.93,32.46H55.07c.2-1.17,.3-2.36,.33-3.54,.03-1.18,0-2.37-.13-3.55-.25-2.34-.85-4.66-1.98-6.7-.57-1.01-1.26-1.95-2.08-2.75-.74-.73-1.59-1.35-2.5-1.85,0,0-.01,.01-.02,.02,0,0,0,0,.02-.02-.09-.05-.18-.1-.27-.15-1.02-.53-2.11-.9-3.23-1.17-1.12-.25-2.27-.39-3.43-.44-.29-.02-.58-.02-.87-.02-.29,0-.58,0-.87,0-.58,0-1.15,.05-1.71,.12-1.13,.14-2.22,.41-3.23,.84-1.01,.44-1.93,1.04-2.73,1.79-.81,.74-1.5,1.63-2.13,2.57-1.26,1.9-2.29,4.04-3.5,6.14-.87,1.52-1.84,3.03-2.98,4.45,.94,.26,1.9,.48,2.86,.65,1.65,.29,3.32,.45,5.01,.44,1.68,0,3.38-.18,5.04-.55,1.66-.37,3.29-.94,4.83-1.73-1.43,.97-2.99,1.77-4.64,2.36-1.65,.6-3.38,1-5.13,1.23-1.75,.23-3.54,.3-5.32,.21-.89-.04-1.78-.12-2.67-.24-.44-.06-.89-.13-1.33-.21-.22-.04-.45-.08-.67-.13l-.34-.07c-.12-.03-.22-.05-.36-.09h0s-2.06-.7-2.06-.7l1.54-1.5c1.61-1.56,2.95-3.4,4.17-5.38,.61-.99,1.2-2.01,1.82-3.04,.61-1.03,1.25-2.08,1.98-3.09,.73-1.01,1.56-2,2.55-2.85,.99-.86,2.14-1.55,3.36-2.03,1.22-.47,2.5-.73,3.76-.84,.63-.06,1.27-.08,1.88-.07,.31,0,.62,0,.93,.02,.31,.01,.62,.03,.93,.05,1.24,.1,2.48,.29,3.69,.61,1.21,.33,2.41,.78,3.52,1.41,.1,.06,.2,.12,.31,.18,.42-1.42-.46-3.58-9.74-3.58-13.03,0-18.23,10.47-23.68,6.85,0,3.62,5.45,3.63,5.45,3.63,0,0-9.08,1.81-4.51,12.69Z"/></svg>