<?xml version="1.0" encoding="UTF-8"?><svg id="Layer_1" xmlns="http://www.w3.org/2000/svg" viewBox="0 0 51.15 72"><defs><style>.cls-1{fill:#262626;}.cls-2{fill:#fff;}.cls-3{fill:#231f20;}</style></defs><g><rect class="cls-1" y="52.44" width="51.15" height="19.56"/><g><g><path class="cls-2" d="M21.66,60.63c-1.38-.75-2.22-1.25-2.22-1.99,0-.7,.6-1.24,1.35-1.24,1.5,0,2.15,1.45,2.35,2.07v.04h.37v-.06s-.3-2.47-.3-2.47v-.05h-.37v.07c.03,.1,.03,.16,0,.19-.02,.03-.07,.04-.15,.04-.22,0-.41-.07-.63-.15-.3-.11-.67-.24-1.26-.24-1.5,0-2.58,.97-2.58,2.3,0,1.07,.89,1.65,2.24,2.52l.22,.14c1.17,.76,1.85,1.32,1.85,1.96,0,.75-.67,1.3-1.59,1.3-1.07,0-1.92-.71-2.62-2.16l-.02-.03h-.35v.07s.5,2.56,.5,2.56v.04h.35v-.05c.03-.15,.17-.22,.29-.22,.07,0,.24,.04,.45,.09,.42,.1,1.05,.26,1.65,.26,1.53,0,2.74-1.05,2.74-2.4,0-1.2-1.09-1.96-2.27-2.59Z"/><path class="cls-2" d="M6.3,60.63c-1.38-.75-2.22-1.25-2.22-1.99,0-.7,.59-1.24,1.35-1.24,1.5,0,2.15,1.45,2.35,2.07v.04h.37v-.06s-.3-2.47-.3-2.47v-.05h-.37v.07c.03,.1,.03,.16,0,.19-.02,.03-.07,.04-.15,.04-.22,0-.41-.07-.63-.15-.3-.11-.67-.24-1.25-.24-1.5,0-2.58,.97-2.58,2.3,0,1.07,.89,1.65,2.24,2.52l.22,.14c1.17,.76,1.85,1.32,1.85,1.96,0,.75-.67,1.3-1.59,1.3-1.07,0-1.92-.71-2.62-2.16v-.03h-.37v.07s.5,2.56,.5,2.56v.04h.35v-.05c.03-.15,.17-.22,.29-.22,.07,0,.24,.04,.45,.09,.42,.1,1.05,.26,1.65,.26,1.53,0,2.74-1.05,2.74-2.4,0-1.2-1.09-1.96-2.27-2.59Z"/><path class="cls-2" d="M41.63,58.92h-5.45v.05s-.09,1.19-.09,1.19h.41c.14-.6,.34-.8,1.18-.8,.56,0,.59,.07,.59,.21v4.71c0,.64-.16,.79-.57,.86v.33h2.46v-.32c-.46-.05-.64-.18-.64-.86v-4.71c0-.14,.03-.21,.59-.21,.84,0,1.04,.2,1.18,.8h.42l-.07-1.19v-.05Z"/><path class="cls-2" d="M47.67,64.17c-.36,.67-.72,.79-1.76,.79s-1.37-.01-1.37-.3v-2.35h1.19c.72,0,.91,.08,1,.64h.33v-1.83h-.3c-.05,.49-.3,.69-.83,.69h-1.38v-2.19s0-.2,.3-.2h1.03c.8,0,1.15,.07,1.35,.58h.44l-.03-1.03v-.05h-5.02v.32c.48,.05,.67,.17,.67,.87v4.18c0,.69-.19,.82-.67,.87v.32h5.2v-.04s.33-1.25,.33-1.25h-.48Z"/><path class="cls-2" d="M35.98,64.69l-2.81-5.87v-.03h-.27v.03s-2.52,5.78-2.52,5.78c-.09,.27-.35,.55-.66,.56v.3h1.89v-.29h-.08c-.33,0-.5-.12-.5-.38,0-.14,.04-.27,.09-.41v-.03s.31-.73,.37-.89h2.53l.47,1.01c.09,.2,.1,.28,.1,.37,0,.21-.12,.3-.44,.33v.3h2.46v-.29c-.34,0-.48-.16-.63-.48Zm-4.29-1.74l1.02-2.4,1.13,2.4h-2.14Z"/><path class="cls-2" d="M30.01,58.92h-5.45v.05s-.09,1.19-.09,1.19h.41c.14-.6,.34-.8,1.18-.8,.56,0,.59,.07,.59,.21v4.71c0,.67-.17,.81-.62,.86v.32h2.53v-.32c-.47-.05-.66-.18-.66-.87v-4.71c0-.14,.03-.21,.59-.21,.84,0,1.04,.2,1.18,.8h.42l-.07-1.19v-.05Z"/></g><path class="cls-2" d="M9.32,57.48c.67,.04,.8,.26,.8,1.11v5.29c0,.88-.06,1.09-.8,1.11v.35h3.29v-.35c-.78-.02-1.05-.23-1.05-1.12v-2.64h1.17c.79,0,1.32,.34,1.32,.71h.35v-1.93h-.35c0,.34-.48,.61-1.32,.61h-1.17v-2.17c0-.61,.03-.72,.46-.72h1.74c.9,0,1.18,.08,1.35,.75v.04h.35v-.06s-.14-1.29-.14-1.29v-.05h-6v.36Z"/></g></g><rect class="cls-3" x="0" width="51.14" height="51.14"/><path class="cls-2" d="M19.27,3.2h0C6.91,6.68-.31,19.57,3.18,31.92c1.69,5.98,5.61,10.95,11.04,13.99,5.43,3.04,11.71,3.79,17.69,2.1,5.98-1.68,10.94-5.6,13.99-11.03,3.04-5.43,3.79-11.71,2.11-17.69-1.68-5.98-5.6-10.95-11.04-13.99-5.43-3.04-11.72-3.79-17.69-2.11Z"/><path class="cls-2" d="M46.7,19.62c-.8-2.85-2.14-5.46-3.98-7.75-1.77-2.21-3.94-4.04-6.42-5.44-2.49-1.39-5.18-2.28-8-2.64-2.92-.37-5.84-.15-8.69,.65C7.97,7.73,1.17,19.88,4.45,31.52c.8,2.85,2.14,5.46,3.98,7.75,1.78,2.22,3.94,4.05,6.43,5.44,5.12,2.87,11.04,3.57,16.67,1.98,2.85-.8,5.46-2.14,7.75-3.98,2.21-1.77,4.04-3.94,5.44-6.42,1.39-2.49,2.28-5.18,2.64-7.99,.37-2.92,.15-5.84-.65-8.68Zm-9.74,16c-2.69,3.05-6.4,4.86-10.44,5.11-4.04,.25-7.95-1.09-10.99-3.78-3.05-2.69-4.86-6.4-5.11-10.44-.25-4.04,1.09-7.95,3.78-10.99,2.69-3.05,6.4-4.86,10.44-5.11,4.04-.25,7.95,1.09,10.99,3.78,3.05,2.69,4.86,6.4,5.11,10.45,.25,4.04-1.09,7.95-3.78,10.99Z"/><g><path d="M16.88,41.48c-.21,.02-.37,.21-.34,.42,.02,.21,.21,.37,.42,.34,.21-.02,.36-.21,.34-.42-.02-.21-.21-.37-.42-.35Z"/><path d="M34.75,41.44c-.21-.01-.39,.15-.41,.36-.01,.21,.15,.39,.36,.41,.21,.01,.39-.15,.4-.36,.01-.21-.15-.4-.36-.41Z"/><path d="M21.13,41.82s-.07-.03-.07-.03c0,0,0,0,0,0-.03,0-.2,.02-1.23,.09,0,0-.18,.01-.2,.01,0,.01,0,.07,0,.09,.11,0,.21,0,.34,.04,.09,.03,.15,.08,.18,.14,.05,.11,.02,.25-.03,.42l-.38,1.51c-.13,.5-.17,.63-.75,.44,0,.02-.03,.11-.03,.12,.02,0,1.82,.6,1.84,.61,0-.01,.03-.1,.03-.12-.25-.08-.36-.15-.41-.25-.02-.03-.02-.07-.03-.11,0-.11,.03-.25,.08-.45,0,0,.62-2.41,.65-2.52Z"/><path d="M24.05,42.34c-.55-.05-.85,.11-1.01,.26-.2,.19-.23,.39-.23,.45-.03,.45,.24,.68,.58,.97l.06,.05h-.04c-.52,.16-.77,.39-.8,.76-.02,.3,.18,.84,1.07,.93,.59,.06,1.25-.18,1.3-.84,.03-.44-.23-.73-.62-1.03l-.03-.03h.04c.44-.16,.65-.37,.68-.69,.03-.44-.38-.78-1.01-.85Zm.19,2.84c-.01,.15-.07,.28-.17,.36-.1,.09-.22,.13-.37,.11-.14-.01-.26-.07-.33-.18-.08-.11-.13-.26-.13-.45v-.15c.02-.21,.11-.58,.33-.7h0s.01,0,.01,0h0c.46,.34,.67,.68,.65,1Zm.22-2.04c-.01,.18-.07,.44-.25,.61h0s-.01,0-.01,0h0c-.32-.22-.69-.53-.66-.91,0-.11,.06-.21,.14-.28,.09-.09,.22-.13,.35-.11,.14,.01,.24,.07,.32,.17,.09,.12,.14,.31,.12,.52Z"/><path d="M27.37,42.35c-.34,.04-.63,.2-.81,.46-.16,.23-.23,.51-.21,.8,.03,.28,.14,.52,.32,.68,.18,.16,.43,.23,.72,.2,.19-.02,.38-.1,.51-.21l.04-.03v.05c-.09,.74-.52,1.15-1.35,1.43,0,0,0,.1,0,.11,.73-.09,1.36-.45,1.74-.98,.25-.34,.37-.74,.37-1.15v-.19c-.08-.65-.55-1.26-1.32-1.17Zm.57,1.74h0s0,.01,0,.01l-.04,.02c-.08,.04-.15,.08-.24,.09-.12,.01-.22-.01-.31-.09-.16-.14-.26-.44-.31-.93v-.22c-.01-.18,.01-.31,.07-.39,.05-.06,.1-.1,.18-.11,.09-.01,.18,.02,.26,.09,.27,.24,.35,.91,.36,1.04,.02,.21,.04,.33,.03,.48Z"/><path d="M30.71,41.71c-.33,.12-.58,.34-.72,.63-.07,.15-.1,.3-.11,.46,0,.12,.01,.24,.04,.36,.13,.47,.55,.85,1.17,.64,.19-.07,.35-.18,.46-.32l.03-.04v.05s0,.18,0,.18c-.02,.66-.35,1.09-1.06,1.52,0,0,0,.1,0,.12,.7-.25,1.27-.74,1.55-1.34,.12-.26,.19-.53,.2-.8,0-.2-.02-.4-.07-.59-.18-.63-.74-1.12-1.49-.86Zm.86,1.59h0s-.03,.04-.03,.04c-.07,.06-.14,.11-.22,.14-.11,.04-.22,.03-.32-.02-.18-.1-.33-.38-.46-.84-.02-.08-.07-.26-.07-.43,0-.15,.05-.28,.2-.33,.45-.16,.74,.78,.8,.97v.04c.06,.18,.09,.29,.11,.42h0Z"/><path d="M19.96,9.74c.3-.11,.56-.36,.71-.69,.2-.43,.21-.96,.03-1.45-.18-.49-.53-.88-.96-1.08-.33-.16-.69-.18-.99-.07-.74,.27-1.08,1.25-.75,2.14,.33,.89,1.22,1.42,1.95,1.15Zm-1.46-2.8c.07-.15,.18-.25,.33-.3,.15-.05,.3-.05,.44,.02,.44,.2,.73,.88,.83,1.16,.26,.7,.34,1.52-.21,1.72-.15,.05-.3,.05-.44-.02-.44-.2-.73-.88-.83-1.16-.1-.28-.32-.98-.12-1.42Z"/><path d="M13.64,37.72l.16-.13-.63-.64-.16,.13c.07,.08,.16,.23,.05,.31-.04,.03-.2,.1-.33,.15,0,0-.23,.08-.31,.11l-.72-.89,.16-.29s.03-.05,.03-.05c.04-.08,.1-.19,.16-.24,.03-.03,.11-.09,.29,.13l.16-.13c-.06-.08-.21-.26-.35-.45-.18-.24-.36-.51-.42-.6l-.16,.13c.12,.19,.13,.26,0,.49l-1.55,2.69c-.04,.08-.06,.12-.03,.15,.02,.03,.06,.03,.11,.02,.19-.02,2.57-.8,2.57-.8,.51-.17,.76-.24,.98-.09Zm-2.73,.46l.67-1.18,.6,.74-1.28,.43Z"/><path d="M15.46,39.07c-.14,.02-.17,0-.17,0-.02-.02-.07-.08-.11-.15l-.07-.1c-.11-.14-.22-.27-.34-.38-.62-.52-1.15-.51-1.61,.04-.4,.47-.2,.98,.03,1.43l.07,.14c.2,.39,.37,.72,.16,.97-.08,.1-.19,.15-.31,.15-.12,0-.25-.05-.36-.14-.34-.29-.52-.62-.32-1.09l-.16-.13-.48,.59-.03,.04,.13,.11,.03-.02c.07-.03,.17-.02,.21,.02,.01,0,.04,.06,.06,.09,.02,.04,.05,.08,.08,.14,.09,.15,.21,.29,.34,.41,.39,.33,.99,.4,1.4-.08,.39-.47,.21-.93-.02-1.42l-.05-.1c-.2-.4-.37-.75-.12-1.04,.08-.1,.19-.15,.32-.15,.16,0,.34,.07,.49,.2,.37,.31,.44,.7,.38,1.05l.15,.12,.45-.55,.03-.03-.15-.12h-.02Z"/><path d="M8.7,36.18l2.22-1.25c.21-.12,.37-.09,.49,.09v.02s.18-.13,.18-.13l-.23-.35-.24-.41-.17,.09c.06,.11,.08,.2,.05,.29-.02,.08-.09,.16-.2,.22,0,0-1.65,.94-2.07,1.17l1.59-3.33v-.02s-.08-.19-.08-.19l-2.51,1.4c-.16,.09-.25,.11-.31,.1-.05-.02-.1-.06-.16-.17l-.18,.09c.04,.09,.13,.29,.18,.41,.05,.11,.14,.3,.19,.39l.18-.09c-.07-.14-.09-.22-.07-.29,.02-.07,.09-.14,.23-.22l1.58-.88-1.29,2.66,.25,.43,.24,.38,.17-.09s0-.01,0-.02c-.03-.08-.11-.25-.03-.29Z"/><path d="M5.66,28.02c-.02-.25,0-.27,.38-.29,0,0,2.25-.14,2.25-.14,.39-.03,.4,0,.42,.23l.2-.02-.09-1.17-.19,.02c.02,.28-.03,.31-.41,.34,0,0-.83,.06-1.03,.07l-.02-.33c-.01-.1,.1-.17,.3-.26,0,0,1.29-.65,1.29-.65h.03s.02-.86,.02-.86l-.19,.02h0c.02,.24-.16,.29-.23,.33l-1.27,.71s-.06,.05-.09,.08c-.08-.27-.33-.7-.76-.67-.47,.03-.99,.32-.91,1.34l.11,1.26h.21Zm.62-1.99c.47-.03,.71,.2,.75,.63,0,0,.02,.33,.03,.4l-1.4,.1-.03-.4c-.04-.43,.17-.69,.65-.72Z"/><path d="M5.55,22.93c.14,.11,2.37,1.15,2.37,1.15,.49,.22,.62,.33,.65,.59l.21-.02,.07-.86-.21-.02h0c-.02,.11-.06,.28-.19,.27-.05,0-.14-.04-.27-.1,0,0-.22-.1-.3-.13l.17-1.12,.33-.1s.05-.02,.05-.02c.09-.03,.18-.04,.25-.04,.04,0,.14,0,.11,.17v.02s.21,.02,.21,.02l.19-1.09h-.18c-.05,.12-.1,.14-.36,.22l-3.02,.88c-.09,.03-.13,.04-.14,.09,0,.04,.02,.06,.06,.09Zm2.23-.15l-.14,.93-1.2-.55,1.34-.38Z"/><path d="M6.21,20.45c.03-.07,.11-.24,.2-.21l2.42,.81c.23,.08,.32,.14,.26,.36h0s.2,.04,.2,.04l.22-.78-.19-.07c-.04,.12-.1,.19-.18,.23-.08,.04-.18,.04-.31,0l-2.24-.76,3.51-1.02h.02s0-.02,0-.02l.05-.13v-.04s-.03-.02-.03-.02l-2.69-.91c-.33-.11-.32-.24-.24-.45l-.19-.07-.34,.86,.19,.07c.1-.25,.18-.32,.49-.21l1.7,.58-2.79,.79h-.02s0,.02,0,.02l-.23,.89,.19,.07s0-.01,0-.02Z"/><path d="M8.82,17.57c.82,.47,1.84,.3,2.23-.38,.16-.28,.23-.52,.26-.67,.01-.07,.02-.14,.03-.2,0-.06,.02-.14,.03-.16,.03-.06,.16-.05,.28-.05h.02s.01-.02,.01-.02l.03-.05,.02-.04-.04-.02-.89-.51-.11,.2c.22,.3,.49,.88,.18,1.41-.08,.14-.2,.23-.35,.27-.47,.13-1.12-.21-1.38-.35-.56-.32-.88-.63-.97-.96-.05-.2-.02-.41,.1-.62,.22-.38,.75-.47,1.2-.42l.13-.23-.83-.48-.04-.02-.02,.04-.05,.08v.03s0,.02,0,.02v.02c.07,.07,.09,.11,.05,.17-.07,.13-.15,.19-.24,.26l-.05,.04c-.12,.09-.25,.22-.43,.52-.16,.28-.2,.63-.1,.98,.12,.46,.45,.88,.9,1.13Z"/><path d="M10.21,13.26l1.78,1.47c.28,.23,.27,.25,.09,.48l.15,.13,.77-.94-.15-.13c-.19,.22-.21,.23-.49,0,0,0-1.78-1.47-1.78-1.47-.28-.23-.27-.25-.09-.48l-.15-.13-.77,.94,.15,.13c.18-.22,.21-.23,.48,0Z"/><path d="M13.2,12.16l.11-.04c.43-.15,.79-.27,1.05,.02,.08,.09,.12,.21,.11,.33-.02,.16-.11,.33-.26,.46-.36,.33-.75,.34-1.1,.24l-.14,.13h0s.49,.52,.49,.52l.03,.03,.14-.13v-.02c0-.15,.02-.17,.02-.17,.02-.02,.09-.05,.17-.09l.11-.06c.15-.09,.3-.18,.42-.29,.6-.54,.66-1.07,.17-1.6-.41-.46-.95-.32-1.42-.17l-.15,.05c-.41,.14-.77,.27-.98,.03-.09-.1-.12-.21-.11-.33,.01-.12,.08-.24,.18-.33,.33-.3,.69-.44,1.12-.17l.15-.14-.53-.56-.04-.03-.13,.11,.02,.03c.02,.07,0,.17-.05,.21-.01,0-.06,.03-.1,.05-.04,.02-.09,.04-.14,.06-.17,.07-.32,.17-.45,.29-.37,.34-.53,.93-.1,1.4,.41,.45,.9,.34,1.41,.17Z"/><path d="M16.87,11.2c.28-.17,.45-.35,.54-.46,.04-.05,.08-.11,.12-.16,.04-.05,.09-.12,.1-.13,.06-.03,.17,.03,.27,.09h.02s.02,0,.02,0l.05-.03,.03-.02-.02-.04-.53-.87-.2,.12c.05,.37,0,1.01-.52,1.33-.14,.08-.28,.11-.44,.07-.47-.11-.88-.72-1.04-.97-.34-.54-.47-.97-.39-1.3,.05-.2,.18-.37,.38-.5,.38-.23,.89-.05,1.26,.21l.23-.14-.49-.79-.02-.03-.04,.02-.08,.05-.03,.02s0,.03,0,.03v.02c.02,.08,0,.1-.06,.14-.13,.08-.22,.1-.33,.11h-.07c-.15,.04-.33,.09-.62,.27-.27,.17-.47,.46-.56,.82-.11,.46-.02,.98,.25,1.42,.5,.81,1.48,1.14,2.14,.74Z"/><path d="M23.51,7.42l.11,.03c.43,.13,.8,.25,.84,.63,.01,.12-.02,.24-.11,.33-.11,.12-.28,.2-.48,.22-.48,.06-.81-.16-1.02-.44l-.2,.02,.1,.7v.05s.2-.03,.2-.03v-.02c.1-.12,.13-.13,.13-.13,.03,0,.1,0,.19,.02l.12,.02c.17,.01,.34,.03,.5,.01,.8-.09,1.16-.48,1.08-1.2-.07-.61-.58-.82-1.06-.96l-.15-.04c-.42-.12-.78-.23-.81-.55-.01-.13,.02-.24,.11-.33,.08-.09,.21-.15,.34-.17,.44-.05,.81,.05,1.01,.52l.2-.02-.1-.76v-.05s-.18,.01-.18,.01v.04c-.04,.07-.11,.13-.17,.14-.02,0-.07,0-.11-.02-.04,0-.09-.02-.15-.03-.18-.04-.36-.05-.53-.03-.5,.06-.97,.44-.9,1.08,.07,.6,.53,.8,1.04,.96Z"/><path d="M26.29,5.54c.07,0,.09,.02,.08,.17,0,0-.11,2.52-.11,2.52-.02,.35-.03,.37-.37,.36l-.02,.19,1.3,.06v-.2s.01,0,.01,0c-.34-.02-.36-.04-.35-.39,0,0,.12-2.51,.12-2.52,0-.15,.03-.16,.1-.16,.29,.01,.54,.21,.73,.59h.23s-.09-.78-.09-.78l-2.47-.11-.17,.77h.23c.22-.34,.48-.51,.77-.5Z"/><path d="M27.66,8.91l.9,.13,.04-.2c-.1-.02-.27-.08-.24-.21,.01-.05,.08-.17,.15-.29,0,0,.13-.21,.17-.28l1.12,.24,.05,.36s0,.05,0,.05c.02,.09,.04,.25,.02,.33,0,.04-.03,.14-.32,.08h0s-.03,.13-.03,.13c.21,.06,1.07,.31,1.27,.37l.04-.19c-.21-.07-.26-.12-.31-.38l-.49-3.1c-.02-.09-.03-.13-.07-.14-.04-.01-.07,.01-.1,.05-.13,.14-1.48,2.25-1.48,2.25-.29,.46-.45,.61-.72,.63l-.02,.21Zm1.86-2.22l.22,1.34-.94-.2,.72-1.14Z"/><path d="M32.7,10.12h0c-.32-.14-.33-.16-.2-.48,0,0,.92-2.27,.92-2.27,.06-.13,.08-.14,.15-.11,.28,.11,.44,.39,.49,.82l.2,.08,.18-.83-2.3-.88-.42,.69,.21,.08c.33-.27,.64-.35,.91-.24,.07,.03,.08,.05,.02,.18,0,0-.94,2.34-.94,2.34-.13,.33-.16,.27-.47,.14l-.05,.19,1.21,.49,.08-.18Z"/><path d="M34.14,10.41c-.21,.33-.23,.32-.4,.22l-.11,.18,1.96,1.21,.03,.02,.02-.02,.32-.35-.26-.16c-.28,.11-.49,.04-.82-.17,0,0-.33-.21-.33-.21-.07-.04-.07-.08,.03-.23,0,0,.6-.95,.71-1.14l.15,.09c.39,.24,.6,.28,.48,.63l.17,.11,.44-.71-.17-.11c-.31,.26-.55,.05-.8-.1,0,0-.09-.06-.15-.09l.68-1.09,.48,.3c.2,.12,.4,.26,.45,.53l.22,.13,.1-.39v-.03s-.02-.02-.02-.02l-1.84-1.15-.11,.18c.17,.11,.19,.13-.01,.46l-1.2,1.93Z"/><path d="M37.81,14.06c.3,.31,.64,.45,.94,.46,.26,0,.51-.11,.75-.34,0,0,1.28-1.24,1.28-1.24,.12-.12,.2-.17,.27-.17,.05,0,.11,.03,.19,.12l.12-.12-.56-.64-.13,.12c.19,.19,.21,.29-.02,.51l-1.32,1.28c-.46,.45-.96,.26-1.28-.06-.15-.16-.32-.41-.32-.59,0-.23,.14-.49,.42-.76,0,0,1.22-1.19,1.22-1.19,.25-.25,.28-.24,.49-.04l.14-.13-.85-.78-.14,.13c.06,.06,.09,.12,.09,.17,0,.07-.05,.16-.18,.28l-1.17,1.13c-.29,.28-.43,.56-.44,.85,0,.29,.21,.71,.5,1Z"/><path d="M41.83,14.03s-2.12,1.42-2.12,1.42c-.2,.13-.37,.12-.5-.05l-.02-.02-.16,.13,.25,.34,.27,.39,.17-.1c-.07-.11-.1-.2-.08-.29,.02-.09,.08-.16,.19-.24,0,0,1.6-1.06,2-1.32l-1.35,3.41v.02s.09,.19,.09,.19l2.4-1.55c.15-.1,.25-.13,.31-.12,.05,.01,.17,.17,.23,.27l.18-.11c-.04-.08-.21-.39-.27-.51-.06-.11-.17-.29-.22-.38l-.17,.1c.08,.13,.11,.22,.09,.29-.02,.07-.08,.15-.22,.23l-1.51,.99,1.1-2.74-.29-.41-.27-.36-.17,.1s0,.01,0,.02c.04,.07,.12,.24,.05,.29Z"/><path d="M43.77,18.05s-2.16,.85-2.16,.85c-.33,.13-.36,.12-.47-.15l-.18,.07h0s.46,1.14,.46,1.14l.18-.07c-.1-.27-.1-.3,.23-.43,0,0,2.17-.87,2.17-.87,.33-.13,.35-.11,.46,.15l.18-.07-.47-1.12-.18,.07h0c.11,.28,.11,.3-.23,.44Z"/><path d="M44.93,20.53s.08,.02,.14,.27l.2-.04-.36-1.21-.2,.04c.05,.22,.01,.28-.28,.48,0,0-2.45,1.68-2.45,1.68h-.02s0,.04,0,.04v.07s.02,.03,.02,.03h.03s2.98,.41,2.98,.41c.27,.03,.38,.11,.46,.29l.2-.04h0s-.15-.79-.15-.79l-.2,.04c.02,.14,0,.22-.12,.25-.03,0-.18,.01-.4-.02l-1.77-.22,1.82-1.23s.07-.05,.1-.05Z"/><path d="M45.19,27.4s-2.25-.32-2.25-.32c-.39-.06-.39-.08-.36-.32h0s-.2-.02-.2-.02l-.15,1.17,.19,.03c.04-.29,.09-.31,.47-.26,0,0,.83,.11,1.02,.14l-.04,.32c0,.1-.13,.14-.34,.19l-1.4,.38h-.03s-.19,.82-.19,.82l.19,.03c.03-.23,.22-.25,.29-.27,0,0,1.39-.44,1.39-.44,.04,0,.07-.03,.1-.06,.03,.28,.18,.75,.61,.81,.47,.06,1.05-.12,1.17-1.13l.16-1.25-.21-.03c-.03,.25-.05,.27-.43,.21Zm.27,1.04c-.05,.42-.31,.64-.78,.58-.46-.06-.65-.34-.61-.77,0,0,.05-.33,.05-.4l1.39,.19-.05,.4Z"/><path d="M44.15,30.95c-.57-.21-.98,.11-1.35,.5l-.08,.08c-.31,.33-.57,.61-.94,.47-.12-.04-.21-.13-.25-.25-.06-.15-.05-.34,.02-.53,.16-.45,.5-.65,.85-.72l.06-.18-.67-.23h-.04s-.06,.17-.06,.17v.02c.08,.13,.07,.16,.07,.17,0,.02-.05,.09-.1,.16l-.07,.1c-.09,.15-.18,.3-.24,.45-.28,.76-.08,1.25,.6,1.5,.57,.21,1.02-.15,1.36-.51l.11-.11c.29-.32,.55-.6,.85-.49,.12,.04,.21,.13,.25,.24,.05,.11,.05,.25,0,.38-.15,.42-.4,.71-.91,.67l-.07,.19,.72,.25h.05s.06-.14,.06-.14l-.03-.02c-.05-.06-.07-.15-.05-.21,0-.01,.04-.05,.07-.09,.03-.03,.06-.08,.1-.12,.11-.14,.2-.3,.26-.46,.17-.48,.04-1.07-.56-1.29Z"/><path d="M42.96,34.8s-2.04-1.12-2.04-1.12c-.31-.17-.31-.2-.18-.45l-.16-.09-.58,1.07,.17,.1c.14-.25,.16-.27,.48-.1l2.04,1.12c.31,.17,.31,.2,.17,.46h0s.17,.1,.17,.1h0s.58-1.08,.58-1.08l-.17-.1c-.14,.26-.16,.27-.48,.1Z"/><path d="M41.71,36.41c.17,.39,.17,.71,0,.95-.04,.06-.07,.06-.18-.03l-2-1.51c-.28-.21-.29-.23-.08-.51h0s-.14-.11-.14-.11l-.78,1.05,.14,.11c.2-.27,.23-.27,.51-.06l1.99,1.5c.12,.09,.12,.11,.07,.17-.18,.24-.48,.33-.91,.27l-.13,.18,.75,.39,1.45-1.99-.56-.58-.13,.18Z"/><path d="M39.79,39.41s-1.5-.47-1.61-.51l-.68-.73c-.24-.26-.24-.28,0-.52l-.13-.15-.95,.89,.13,.14c.25-.22,.28-.22,.52,.04,0,0,.71,.76,.78,.84l.29,1.23v.03c.06,.3,.09,.45-.11,.64l.13,.15,.61-.52-.13-.15h0c-.11,.1-.18,.12-.23,.08-.01-.02-.03-.05-.05-.14,0,0-.23-.95-.28-1.19,.25,.08,1.19,.42,1.19,.42,.08,.02,.1,.04,.1,.04,.02,.02,.05,.06-.13,.23l.13,.14,.93-.94-.13-.15c-.2,.18-.22,.17-.38,.12Z"/><path d="M9.37,30.75l.17-.04-.32-1.19-.2,.05c.1,.33,.05,.36-.31,.45l-1.05,.28-.04-.11c-.12-.42-.25-.75,.08-.84l-.05-.2-.8,.22,.05,.19c.28-.03,.43,.22,.52,.69,0,0,.02,.07,.04,.11l-1.07,.29c-.14,.04-.15,.04-.21-.19-.12-.46-.3-.96-.11-1.23l-.06-.25-.39,.25-.03,.02v.03s.59,2.28,.59,2.28l.19-.04c-.06-.22,.02-.26,.34-.35l2.16-.56c.34-.09,.4-.09,.48,.14Z"/><path d="M45.21,23.81l-2.27,.09c-.39,.01-.39-.02-.4-.21h-.21s.09,2.31,.09,2.31v.03h.03s.47,.08,.47,.08v-.31c-.26-.17-.32-.38-.33-.78,0,0-.01-.39-.01-.39,0-.08,.02-.1,.21-.11,0,0,1.13-.04,1.35-.05v.17c.02,.46,.11,.65-.25,.75v.2s.83-.03,.83-.03v-.2c-.39-.11-.36-.43-.37-.72,0,0,0-.11,0-.17l1.28-.05,.02,.57c0,.23,0,.48-.19,.66v.26s.4-.14,.4-.14h.03s0-.04,0-.04l-.08-2.17h-.21c0,.2,0,.23-.39,.25Z"/></g><path class="cls-3" d="M17.51,5.77C6.6,10.22,1.33,22.73,5.79,33.65c1.09,2.67,2.67,5.05,4.7,7.07,1.96,1.95,4.26,3.49,6.82,4.56,5.27,2.22,11.08,2.25,16.36,.09,2.67-1.09,5.04-2.67,7.07-4.7,1.95-1.96,3.49-4.25,4.56-6.82,1.08-2.56,1.64-5.26,1.68-8.03,.04-2.86-.5-5.67-1.58-8.33C40.94,6.58,28.44,1.32,17.51,5.77Zm27.57,27.99c-1.07,2.54-2.58,4.8-4.51,6.75-2,2.01-4.35,3.57-6.99,4.65-5.22,2.13-10.97,2.1-16.18-.09-2.54-1.07-4.81-2.58-6.75-4.52-2.01-2-3.57-4.35-4.65-6.99C1.6,22.76,6.8,10.39,17.6,5.99c10.8-4.4,23.17,.8,27.58,11.59,2.13,5.22,2.1,10.97-.1,16.18Z"/><path d="M40.37,19.39c-3.41-8.15-12.81-12-20.97-8.59-3.94,1.65-7.01,4.74-8.63,8.71-1.62,3.96-1.61,8.31,.04,12.25,3.41,8.15,12.81,12.01,20.96,8.6,8.15-3.41,12.01-12.82,8.6-20.97Zm-8.69,20.75c-8.03,3.36-17.3-.45-20.66-8.48-1.62-3.88-1.64-8.17-.04-12.07,1.6-3.91,4.62-6.95,8.51-8.58,8.03-3.36,17.3,.44,20.66,8.47,3.36,8.03-.44,17.3-8.47,20.66Z"/><path class="cls-3" d="M47.39,19.43c-.83-2.94-2.21-5.63-4.11-7.99-1.83-2.29-4.06-4.17-6.63-5.61-2.57-1.44-5.34-2.35-8.25-2.72-3.01-.38-6.02-.15-8.96,.67C7.42,7.16,.41,19.7,3.79,31.71c.83,2.94,2.21,5.63,4.11,8,1.83,2.29,4.06,4.17,6.63,5.61,2.57,1.44,5.34,2.35,8.24,2.72,3.01,.38,6.02,.15,8.96-.68,2.94-.83,5.62-2.21,7.99-4.1,2.29-1.83,4.17-4.06,5.61-6.63,1.44-2.57,2.36-5.34,2.72-8.25,.38-3.01,.16-6.02-.67-8.96Zm-.02,8.87c-.36,2.81-1.25,5.5-2.64,7.99-1.4,2.49-3.23,4.65-5.44,6.42-2.29,1.84-4.9,3.17-7.75,3.98-5.63,1.59-11.55,.89-16.67-1.98-2.49-1.4-4.65-3.22-6.43-5.44-1.84-2.29-3.18-4.9-3.98-7.75C1.18,19.88,7.98,7.73,19.63,4.44c2.85-.8,5.77-1.02,8.69-.65,2.82,.36,5.51,1.25,8,2.64,2.49,1.4,4.65,3.23,6.43,5.44,1.84,2.29,3.17,4.9,3.98,7.75,.8,2.85,1.02,5.77,.65,8.68Z"/><g><path class="cls-3" d="M40.75,24.63c-.25-4.05-2.07-7.76-5.11-10.45-3.05-2.69-6.95-4.03-10.99-3.78-4.05,.25-7.75,2.07-10.44,5.11-2.69,3.04-4.03,6.95-3.78,10.99,.25,4.05,2.06,7.75,5.11,10.44,3.04,2.69,6.95,4.03,10.99,3.78,4.04-.25,7.75-2.07,10.44-5.11,2.69-3.05,4.03-6.95,3.78-10.99ZM14.72,15.98c2.57-2.91,6.11-4.64,9.97-4.88,3.86-.24,7.58,1.04,10.49,3.61,2.41,2.12,4.01,4.91,4.62,8-1.88-.23-4.37-.52-5.87-.61l-.02-1.64-.06-.04,.02-2.49-.06-.05v-.2c.65,.96,2.24,3.08,3.75,3.37,0,0,.72,.2,1.83,.1-.02-.06-.04-.12-.06-.18-.87,.11-1.71-.09-1.72-.09-1.44-.27-3.12-2.57-3.8-3.59v-1.39l-.05-.07v-.88c.8,1.7,2.46,4.65,4.63,5.1,.21,.04,.42,.07,.62,.08-.03-.07-.06-.14-.09-.22-.17,0-.35-.03-.52-.07-2.12-.45-4.01-3.93-4.62-5.16v-.64s-.28-.23-.28-.23h0s-.01-.01-.01-.01h0s0,0,0,0l-.44,.08v.12s-.3,.19-.99,.27l-.05-.09-.25,.05-.05-.02c-.1,.24-1.04,2.25-3.92,4.32-1.43-1.53-2.83-2.98-3.12-3.24-1.27-1.15-2.24-1.75-3.66-1.19-.29,.11-.85,.41-.85,.41,0,0-4.94,2.74-5.45,2.8-.54,.07-.84-.08-.93-.13,.3-.41,.61-.82,.96-1.2Zm18.17-1.18c-.15,.35-.37,.77-.66,1.26-.16,0-.27-.01-.27-.01v-1.03c.31-.27,.77-.32,.97-.33-.01,.04-.03,.07-.04,.11Zm.07,.09s.04-.09,.06-.14v1.09c-.18,.12-.38,.17-.56,.2,.21-.41,.37-.8,.5-1.15Zm-1,5.47v-1.38s.02-.08,.04-.11c.09-.13,.34-.17,.34-.17h.43c.21,0,.2,.27,.2,.27v1.42s-.61,.08-1.01-.04Zm.92,1.08c0,.1,0,.34,0,.64-.05,0-.1,0-.14,.01-.33,.05-.55,.07-.79,.1v-.84c.06-.07,.15-.14,.27-.16,.29-.03,.68-.08,.67,.25Zm-.06-3.46s-.68,0-.77,0c-.02,0-.07,0-.08-.02v-1.1c.31-.33,1.05-.25,1.05-.25,0,0,.01,1.1,0,1.19-.01,.09-.15,.16-.2,.16Zm-6.6,1.69c-.25-.06-.66-.23-.66-.23-1.18-2.18-4.33-2.58-6.61-1.72-2.05,.77-3.39,2.77-3.9,4.62-.29,.08-.61,.33-.84,.66-.93-.02-1.64-.02-2.16-.05-.25-.02-.71-.06-.66-.33,.33-1.61,.95-3.15,1.81-4.57,0,0,.6,.3,1.5,.21,1.27-.12,5.81-2.98,6.34-3.14,1.38-.43,2.42,.35,3.09,.96,.3,.28,1.03,1.28,2.5,2.66,.96,.9,1.81,1.22,3.74,3.81-.15,.03-.45,.09-1.17,.2-.99,.12-1.1,.14-2.47,.28,0-.14,.01-.33,.04-.55,.06-.47,.35-1.07,.58-1.55,.31-.68-.63-1.06-1.11-1.24Zm-2.04,8.87c.05,0,.72,0,1.03,0,.1,0,.13,.05,.11,.17,0,0,0,0,0,0h-.67s-.03,0-.04,.03v.02s0,.04,.03,.04l.62,.18c-.07,.29-.17,.61-.33,.72-.67,.66-1.78,.08-2.46-.04-.42-.11-.88-.23-1.15-.6-.5-.61-1.08-2.27-1.08-2.27-.11-.33-.3-.8-.56-.73-.05,.07,.05,.83,.07,.87-.24-.02-.46-.05-.64-.19-.29-.36-.4-1.14-.41-1.63,2.15-.66,4.24-3.63,7.3-2.69,0,0,0,.81,.04,1.42,.07,.61,.33,1.96,.5,2.64,0,0,.04,.14-.06,.19-.03,.02-.85,.15-1.02,.2-.08,.03-.1,.13-.1,.15,0,.02,.01,.83,.01,.94s-.02,.26-.17,.26c-.05,0-.62,0-1.02,0-.14,0-.16,.11-.16,.14,0,0,0,.17,.16,.17Zm-1.71,7.71c-1.01,1.55-1.6,2.75-1.73,3-.03-.01-.06-.02-.1-.04-.32-.38-1.62-1.95-2.37-3.04-1.19-1.75-2.96-2.77-2.96-2.77,.94,.66,2.54,3.12,3.83,5.17-.55-.28-1.09-.59-1.61-.94-.64-1.59-1.44-3.19-2.36-4.3,.22,0,.45,.09,.67,.17,1.55,.63,4.56,4.01,4.56,4.01,0,0,3.23-3.82,3.76-4.27,.56-.49,.63-.52,1.02-.53-.59,1.68-1.11,4.69-1.35,7.26-.69-.08-1.36-.21-2.03-.39,.25-.63,.54-1.32,.84-1.96,.94-1.99,2.24-4.65,2.24-4.65,0,0-1.28,1.52-2.42,3.27Zm-7.43-9.68c-.47-.23-.31-1.05-.31-1.05,.51,.41,1.46,.59,2.74,.23,.1,.1,.09,.2,.11,.34-.62,.3-1.63,.93-2.53,.49Zm2.73,.1s.07,.04,.08,.2c-1.42,1.07-2.03,1.27-2.64,1.11-.5-.15-.25-.65-.25-.65,0,0,.82,.59,2.81-.65Zm-3.03,1.8c1.24,.92,3.3-1.14,3.3-1.14,.07,.06,.05,.24,.05,.24-.16,.32-1.21,1.13-1.21,1.13-.54,.39-1.3,.83-1.97,.64-.73-.28-.17-.87-.17-.87Zm3.77-.74l.08-.11s.26,.13-.09,.68c-2.39,3.75-4.74,2.41-4.74,2.41-.61-.31-.21-.78-.21-.78,.16-.21,.33-.23,.55-.26,0,0,1.64,1.71,4.41-1.94Zm1.86,7.51c-.76-.97-1.67-1.75-2.72-2.4-.43-.24-.91-.55-1.37-.72v-.04c.92-.45,1.82-.96,2.36-1.91,0,0,.54-.96,1-2.64,.19-.09,.4,.25,.44,.51,.5,1.58,.61,5.5,.8,5.76,.04-.05,.99-1.4,1.7-1.92,.33-.11,.59-.07,.88,.09-1.14,.82-3.04,3.19-3.1,3.28Zm5.3-13.56c-1.41-.41-3.16,.09-4.31,.98-1.39,.99-2.64,1.89-4.16,2.17-.67,.12-1.42,.15-1.89-.14-.45-.37-.67-.92-.54-1.45,.09-.28,.18-.4,.37-.51,.04,.3,.29,.6,.68,.76,1.24,.5,2.61-.26,3.57-.99,.92-.67,1.71-1.15,2.87-1.82,1.14-.58,2.6-.76,3.81-.27,0,0,.24,.11,.31,.15,.07,.04,.07,.06,.07,.06,0,.02,.02,.04,0,.09-.07,.37-.2,.64-.33,.96-.04,.08-.39,.02-.47,0Zm-8.16,.69c.97-.07,1.7-.23,1.7-.23,0,0-1.63,.87-2.52,.87s-.93-.7-.59-.96c0,0,.45,.4,1.41,.33Zm-1.26-1.08c.74-1.49,2.16-2.67,3.74-3.12,1.39-.33,2.96-.22,4.17,.63,.22,.15,.5,.41,.66,.63-1.81,0-3.4,.85-4.79,1.98-.97,.39-2.16,.75-3.04,.36-.26-.05-.54-.35-.74-.48Zm12.91-1.29c1.07-.88,1.85-1.74,2.42-2.53v.44l-.09,.05v2.34l-.07,.03v1.92c-.08,.01-.17,.03-.26,.05-.16-.27-.98-1.2-2-2.3Zm-.24-.26c-.28-.3-.57-.62-.86-.93,2.41-1.79,3.35-3.62,3.66-4.39l-.08,1.55-.06,.06v.97c-.63,.84-1.49,1.79-2.66,2.74Zm-17.71,3.9h2.7c-.12,.51-.05,1.09,.42,1.58,0,0-.51,.88,.28,1.55-.27,.44-.28,.69-.12,1.17-.29,.12-.6,.69-.49,1.1-.65,.14-1.31,.62-1.48,1.33-.07,.56,.07,.91,.42,1.28,.33,.31,.74,.53,1.13,.66-.35,.02-.76,.03-1.25,.16-1-1.83-1.59-3.88-1.73-6.02-.06-.95-.03-1.89,.1-2.81Zm2.09,9.61s.04,0,.05,0c.98,.11,1.89,1.48,2.62,3.14-1.05-.93-1.95-1.99-2.68-3.15Zm13.18,6.77c-.5,.03-1,.04-1.49,.02,.39-3.1,.97-7.22,1.44-7.33,.47-.11,1.65,.1,2.31,.57-.12,.22-.18,.38-.26,.61-.25,.72-.48,1.5-.65,2.27,0,0-.56,2.4-.57,3.43,0,.11,0,.24-.01,.37-.25,.03-.51,.05-.77,.07Zm3.19-5.37c1.03,1.01,1.84,2.05,3.26,3.4-1.46,.86-3.05,1.46-4.74,1.76,.19-1.57,.58-3.45,1.47-5.16Zm6.78,.49c-.12,.14-.24,.27-.37,.4l.02-1.15h-4.06l.1,.75,1.98,2.12c-.12,.09-.24,.17-.36,.26-1.27-1.26-1.62-1.99-2.96-3.27-.32-.35-1.21-1.34-1.85-1.68-.64-.34-2.53-.62-3.72-.98,0,0-.63-.17-1.7-.47-.52-.15-.89-.29-1.12-.39-.01-.01-.06-.06-.06-.17s.05-.13,.06-.14h0c.41,.05,2.75,.57,3.37-.13,.07-.1,.1-.2,.1-.27,0-.32,.02-1.32,.04-1.89h0s0-.01,0-.01c0-.17,0-.31,.01-.37,0-.02,0-.03,0-.05,0-.1,0-.18,0-.25,0-.1,.11-.14,.12-.15,.07-.05,1.27-.1,1.21-.45-.17-.97-.54-2.35-.56-3.19l13.25-.02c.04,.33,.08,.66,.1,1,.24,3.86-1.04,7.58-3.61,10.49Z"/><g><path class="cls-3" d="M26.17,36.74s-.03,.01-.03,.03l-.14,.87s0,.03,.02,.03c.02,0,.42,.15,.81,.1,.01,0,.02-.01,.03-.03,.06-.5,.11-.81,.11-.81,0-.01,0-.02-.01-.03-.27-.19-.76-.16-.78-.16Z"/><path class="cls-3" d="M27.42,34.69c-.28-.22-.84-.25-.86-.25-.02,0-.03,0-.03,.03-.05,.23-.11,.5-.17,.83,0,.02,0,.03,.02,.03,0,0,.39,.14,.79,.18,.01,0,.03,0,.03-.02l.22-.76s0-.03,0-.03Z"/></g><polygon class="cls-3" points="31.16 33.58 36.99 33.58 37.21 32.96 30.94 32.96 31.16 33.58"/><path class="cls-3" d="M32.09,32.75c-.25-.25-.37-.7-.37-1.25,0-.51,.11-1.07,.33-1.57,.5-1.09,1.43-1.69,1.47-1.72l.34-.21-.19,.35s-.36,.69-.64,1.4c-.14,.35-.2,.68-.2,.99,0,.61,.24,1.1,.55,1.41,.08-.25,.21-.7,.21-1.21,0-.19-.02-.39-.07-.58l-.05-.21,.2,.09s.53,.27,.9,1.16c.17-.25,.27-.5,.29-.89,0-.07,0-.14,0-.21,0-1.09-.43-1.73-.76-2.4-.35-.69-.56-.97-.6-1.57-.02-.27,.13-.74,.33-.93,0,0-.19,.2-.08,.74,.06,.31,.37,.84,.58,1.13,.24,.33,.54,.75,.8,1.17,.15,.2,.42,.63,.58,1.2,.06,.2,.1,.38,.11,.53,.11,.94-.19,1.77-1,2.57h.45c.85-.55,1.55-1.5,1.48-2.65-.09-1.55-1.02-2.61-1.95-3.87-.89-1.2-.2-1.92-.2-1.92,0,0-1.53,.81-2.59,2.42-.64,.97-1.14,2.12-1.3,3.17-.21,1.33,.39,2.47,1.39,2.85Z"/><path class="cls-3" d="M37.22,29.98c.13,1.25-.44,2.26-1.32,2.77h.86c2.23-1.18,.44-3.74-.02-4.47-.5-.8,.39,.84,.48,1.7Z"/><polygon class="cls-3" points="31.74 34.16 36.41 34.16 36.55 33.77 31.6 33.77 31.74 34.16"/><path class="cls-3" d="M24.83,24.72c.29,.16,.28,1.21,.42,1.2,.06,.03,.16,.01,.18-.06-.14-.42-.28-1.41-.12-1.69,.02-.12,.25-.25,.11-.37-.37-.24-.66-.56-1.13-.56-.73,.42-1.41,.87-1.94,1.56-.02,.07-.08,.18,.01,.23,0,0,.07-.01,.13-.08,.35-.34,.75-.61,1.16-.86,.23-.14,.59-.3,.85-.15-.22,.14-.39,.33-.6,.47-.12,.14-.39,.24-.36,.43,.43-.03,1.19-.14,1.3-.12Z"/></g></svg>