<?xml version="1.0" encoding="UTF-8"?><svg id="Layer_1" xmlns="http://www.w3.org/2000/svg" viewBox="0 0 275.33 72"><defs><style>.cls-1{fill:#fff;}.cls-2{fill:#4d4d4f;}.cls-3{fill:#231f20;}</style></defs><g><rect class="cls-2" x="74.46" width="200.87" height="72"/><g><path class="cls-1" d="M99.61,29.45h3.85v-.62c-.69,0-1.03-.26-1.03-.79,0-.29,.09-.57,.19-.86l.02-.07s.63-1.53,.77-1.88h5.34l.99,2.11c.19,.42,.21,.59,.21,.78,0,.4-.21,.61-.79,.68v.65h4.91v-.63c-.61-.05-.88-.38-1.2-1,0,0-5.93-12.33-5.93-12.33l-.03-.06h-.53l-.03,.07s-5.3,12.14-5.3,12.15c-.19,.57-.76,1.17-1.44,1.19v.62Zm6.36-10.32l2.38,5.04h-4.53l2.15-5.04Z"/><path class="cls-1" d="M153.37,16.32c1.35,.1,1.32,.19,1.32,1.86v8.78c0,1.67,.03,1.76-1.32,1.86v.63h5.43v-.64c-.96-.09-1.55-.47-1.55-1.65v-4.05h1.44l4.33,6.3,.03,.05h3.05v-.62h-.04c-.4,0-1.01-.26-1.51-1,0,0-3.02-4.34-3.58-5.14,1.74-.54,3.48-1.39,3.48-3.51,0-3.06-3.06-3.48-5.82-3.48h-5.27v.63Zm3.87,1.1c0-.54,.32-.6,.99-.6,1.68,0,3.74,.78,3.74,2.36,0,1.85-2.14,3-3.96,3h-.77v-4.76Z"/><path class="cls-1" d="M91.59,21.66l.45,.29c2.44,1.58,3.85,2.74,3.85,4.05,0,1.56-1.4,2.69-3.32,2.69-2.03,0-3.69-1.23-5.07-3.73h-.99l.89,4.62,.02,.09h.72v-.1c.06-.31,.34-.45,.61-.45,.16,0,.5,.08,.93,.19,.87,.21,2.18,.53,3.44,.53,3.2,0,5.7-2.18,5.7-4.96,0-2.49-2.27-4.05-4.73-5.37-2.87-1.56-4.63-2.59-4.63-4.12,0-1.44,1.24-2.57,2.82-2.57,2.76,0,4.13,2.33,4.71,3.77h.88l-.55-4.64v-.1h-.78l.03,.14c.04,.2,.03,.33-.02,.39-.05,.06-.15,.09-.31,.09-.46,0-.86-.14-1.32-.3-.63-.22-1.4-.49-2.61-.49-3.12,0-5.39,2-5.39,4.76,0,2.21,1.85,3.41,4.66,5.22Z"/><path class="cls-1" d="M115.5,16.45c.97,.3,1.57,.92,1.57,1.16v9.22c0,1.59-.53,1.82-1.57,1.96v.66h4.52v-.63c-1.36-.08-1.69-.44-1.69-2.41v-7.48l9.57,10.6,.03,.04h.44v-11.73c0-.86,.43-1.34,1.34-1.47v-.66h-4.22v.63c1.12,.06,1.62,.44,1.62,1.89v6.55l-8.19-9.02-.03-.04h-3.4v.75Z"/><path class="cls-1" d="M138.74,13.12c1.4,.08,1.67,.55,1.67,2.3v10.98c0,1.83-.13,2.26-1.67,2.31v.73h6.86v-.73c-1.63-.05-2.19-.47-2.19-2.31v-5.47h2.45c1.64,0,2.77,.7,2.77,1.48h.73s0-4.01,0-4.01h-.73c0,.71-1.01,1.26-2.77,1.26h-2.45v-4.51c0-1.27,.07-1.5,.95-1.5h3.63c1.87,0,2.47,.17,2.82,1.55l.02,.09h.71v-.12s-.28-2.68-.28-2.68v-.11h-12.53v.74Z"/><path class="cls-1" d="M242.23,29.72c3.16,0,4.77-2,5.57-3.68l.05-.11-.11-.05-.53-.22-.09-.04-.05,.08c-1.17,1.83-2.62,2.76-4.32,2.76-4.06,0-4.49-4.13-4.49-5.9,0-2.95,1.11-6.09,4.24-6.09,1.97,0,3.36,.97,4.22,2.94h.8l-.49-3.62v-.1h-.61v.12c0,.29-.14,.44-.44,.44-.15,0-.34-.08-.61-.19-.61-.25-1.53-.63-3.14-.63-2.03,0-3.76,.72-5.01,2.1-1.18,1.3-1.83,3.09-1.83,5.06s.65,3.76,1.83,5.06c1.25,1.37,2.99,2.1,5.01,2.1Z"/><path class="cls-1" d="M227.5,23.59c1.72,.74,3.2,1.39,3.2,2.79,0,1.11-.94,2.29-2.67,2.29s-3.08-.87-4.13-2.77h-1.04l.62,3.73,.02,.1h.76v-.12c0-.19,.18-.46,.57-.46,.09,0,.39,.07,.74,.16,.73,.18,1.74,.42,2.46,.42,3.13,0,5-1.46,5-3.9,0-2.8-2.33-3.81-4.39-4.69-1.73-.75-3.22-1.39-3.22-2.9,0-1.63,1.73-1.76,2.26-1.76,1.74,0,2.57,.5,3.82,2.53h.99l-.45-3.49v-.1h-.78v.11c0,.42-.08,.58-.33,.58-.1,0-.37-.09-.68-.2l-.44-.15c-.75-.23-1.45-.34-2.13-.34-2.12,0-4.59,.94-4.59,3.59s2.34,3.69,4.41,4.58Z"/><path class="cls-1" d="M167.69,29.45h3.93v-.62h-.22c-.7,0-1.04-.26-1.04-.8,0-.29,.09-.57,.19-.86l.02-.07s.63-1.53,.77-1.88h5.34l.99,2.11c.19,.42,.21,.59,.21,.78,0,.46-.27,.65-1.03,.7v.63h5.34v-.62c-.75,0-1.04-.33-1.38-1.01,0,0-5.93-12.33-5.93-12.33l-.03-.06h-.54l-.03,.07s-5.3,12.14-5.3,12.15c-.17,.53-.67,1.08-1.29,1.17v.64Zm6.2-10.32l2.38,5.04h-4.53l2.15-5.04Z"/><path class="cls-1" d="M256.42,29.72c2.03,0,3.76-.72,5.01-2.1,1.18-1.3,1.83-3.09,1.83-5.06s-.65-3.76-1.83-5.06c-1.25-1.37-2.99-2.1-5.01-2.1s-3.76,.72-5.02,2.1c-1.18,1.3-1.83,3.09-1.83,5.06s.65,3.76,1.83,5.06c1.25,1.37,2.99,2.1,5.02,2.1Zm0-13.25c2.67,0,3.97,1.99,3.97,6.09s-1.33,6.09-3.97,6.09c-3.45,0-3.97-3.82-3.97-6.09,0-4.1,1.3-6.09,3.97-6.09Z"/><path class="cls-1" d="M219.81,28.8c-1.15-.1-1.6-.3-1.6-1.84v-8.78c0-1.54,.44-1.74,1.6-1.84v-.65h-5.92v.64c1.27,.1,1.76,.24,1.76,1.85v8.78c0,1.61-.49,1.75-1.76,1.85v.64h5.92v-.65Z"/><path class="cls-1" d="M183.99,16.44c1.03,0,1.59,.92,1.59,1.16v9.22c0,1.6-.53,1.82-1.59,1.96v.66h4.64v-.63c-1.45-.07-1.8-.39-1.8-2.41v-7.48l9.17,10.6,.04,.04h.44v-11.73c0-.93,.5-1.41,1.57-1.5v-.63h-4.36v.63c1.06,.08,1.54,.47,1.54,1.88v6.55l-7.79-9.02-.04-.04h-3.42v.75Z"/><path class="cls-1" d="M201.34,27.63c1.25,1.37,2.99,2.1,5.01,2.1,3.16,0,4.77-2,5.57-3.68l.05-.11-.11-.05-.52-.22-.09-.04-.05,.08c-1.17,1.83-2.62,2.76-4.32,2.76-4.05,0-4.49-4.13-4.49-5.9,0-2.95,1.11-6.09,4.25-6.09,2.2,0,3.67,1.19,4.5,3.65l.03,.08h.6l-.02-.13-.58-4.28v-.1h-.61v.12c0,.29-.15,.44-.44,.44-.14,0-.34-.08-.61-.19-.61-.25-1.53-.63-3.15-.63-2.03,0-3.76,.72-5.01,2.1-1.18,1.3-1.84,3.09-1.84,5.06s.65,3.76,1.84,5.06Z"/><path class="cls-1" d="M93.24,47.66c-2.46-1.34-3.97-2.22-3.97-3.53,0-1.23,1.06-2.2,2.42-2.2,2.69,0,3.83,2.57,4.2,3.68l.02,.07h.63v-.11s-.53-4.39-.53-4.39v-.09h-.67l.02,.12c.03,.17,.03,.28-.02,.34-.04,.05-.13,.08-.27,.08-.39,0-.74-.12-1.13-.26-.54-.19-1.2-.42-2.24-.42-2.67,0-4.62,1.71-4.62,4.08,0,1.89,1.59,2.92,3.99,4.47l.39,.25c2.09,1.35,3.3,2.35,3.3,3.47,0,1.34-1.2,2.31-2.85,2.31-1.91,0-3.44-1.26-4.68-3.84l-.03-.06h-.63l.02,.12,.87,4.53,.02,.08h.62v-.08c.05-.27,.29-.38,.52-.38,.13,0,.43,.07,.8,.16,.75,.18,1.87,.46,2.95,.46,2.74,0,4.89-1.87,4.89-4.25,0-2.13-1.95-3.47-4.05-4.6Z"/><path class="cls-1" d="M249.97,44.62h-9.73v.09s-.17,2.12-.17,2.12h.73c.24-1.08,.6-1.44,2.11-1.44,1,0,1.05,.13,1.05,.37v8.36c0,1.15-.29,1.41-1.03,1.52v.58h4.35v-.57c-.78-.1-1.08-.35-1.08-1.53v-8.36c0-.25,.04-.37,1.05-.37,1.52,0,1.87,.36,2.11,1.44h.74l-.13-2.12v-.09Z"/><path class="cls-1" d="M227.08,49.21c-1.46-.63-2.72-1.17-2.72-2.45,0-1.38,1.46-1.49,1.91-1.49,1.5,0,2.2,.44,3.3,2.26h.78l-.4-3.07v-.08h-.66v.1c0,.36-.07,.49-.28,.49-.09,0-.32-.08-.58-.17l-.37-.13c-.64-.19-1.23-.28-1.8-.28-1.78,0-3.87,.79-3.87,3.03s1.98,3.11,3.73,3.87c1.45,.63,2.71,1.17,2.71,2.36,0,.94-.79,1.93-2.26,1.93-1.61,0-2.76-.84-3.67-2.69h-.75l.58,3.5v.08h.65v-.1c0-.16,.15-.39,.49-.39,.08,0,.33,.06,.63,.13,.62,.15,1.47,.36,2.08,.36,2.64,0,4.22-1.23,4.22-3.29,0-2.36-1.97-3.21-3.71-3.96Z"/><path class="cls-1" d="M219.21,54.87s-2.56-3.67-3.03-4.35c1.47-.45,2.93-1.17,2.93-2.96,0-2.58-2.15-2.94-4.48-2.94h-4.69v.55c.97,.08,1.35,.25,1.35,1.55v7.41c0,1.3-.38,1.47-1.35,1.55v.54h5.41v-.52h-.09c-1.09,0-1.72-.23-1.72-1.42v-3.42h.46l3.65,5.32,.03,.04h2.89v-.52h-.09c-.34,0-.85-.22-1.27-.84Zm-5.02-4.77h-.65v-4.19c0-.46,.27-.51,.84-.51,1.42,0,2.3,.83,2.3,2.17,0,1.56-.95,2.54-2.49,2.54Z"/><rect class="cls-1" x="85.91" y="35.28" width="177.64" height="1.14"/><path class="cls-1" d="M233.21,45.16c1.04,.08,1.43,.22,1.43,1.56v7.41c0,1.38-.42,1.48-1.53,1.57v.53h5.31v-.53c-1.11-.08-1.54-.19-1.54-1.57v-7.41c0-1.34,.4-1.48,1.44-1.56v-.54h-5.11v.54Z"/><path class="cls-1" d="M207.03,53.95c-.63,1.19-1.28,1.39-3.14,1.39s-2.44-.02-2.44-.53v-4.17h2.12c1.28,0,1.62,.15,1.79,1.13h.58v-3.24h-.54c-.1,.87-.54,1.22-1.49,1.22h-2.47v-3.89c0-.09,0-.35,.53-.35h1.84c1.43,0,2.05,.12,2.42,1.02h.79l-.06-1.82v-.09h-9.08v.55c.95,.08,1.32,.26,1.32,1.55v7.41c0,1.24-.34,1.45-1.22,1.54v.56h9.31l.02-.07,.57-2.21h-.85Z"/><path class="cls-1" d="M259.45,44.62v.53c.5,.05,.76,.21,.76,.49s-.08,.42-.21,.66v.02s-2.03,3.13-2.46,3.8l-2.34-3.99c-.12-.2-.18-.39-.18-.63s.4-.33,.78-.36v-.53h-4.34v.52c.43,.03,.61,.19,.94,.72l3.39,5.41v2.86c0,1.21-.33,1.44-1.16,1.54v.56h4.67v-.55c-.91-.09-1.27-.28-1.27-1.55v-2.86l2.78-4.47,.11-.17c.61-.97,.81-1.3,1.67-1.49l.08-.02v-.5h-3.21Z"/><path class="cls-1" d="M129.03,44.62h-9.73v.09s-.17,2.11-.17,2.11h.73c.24-1.06,.6-1.42,2.11-1.42,1,0,1.05,.13,1.05,.37v8.36c0,1.14-.29,1.41-1.01,1.52v.58h4.39v-.57c-.82-.09-1.14-.33-1.14-1.53v-8.36c0-.25,.05-.37,1.05-.37,1.51,0,1.86,.36,2.11,1.42h.75l-.13-2.11v-.09Z"/><path class="cls-1" d="M192.45,44.62v.54c.59,.08,1.02,.21,1.02,.74,0,.21-.07,.59-.2,.89,0,0-2.03,5.07-2.47,6.19l-2.78-6.91s-.02-.07-.04-.1c-.04-.1-.07-.19-.07-.28,0-.42,.61-.53,.99-.55v-.52h-4.52v.52h.06c.32,0,.76,.14,1.06,.83,0,0,4.47,10.44,4.47,10.44l.02,.06h.48l.02-.06s4.03-9.97,4.03-9.97c.31-.77,.73-1.19,1.3-1.29h.08v-.51h-3.44Z"/><path class="cls-1" d="M139.85,53.95c-.64,1.19-1.28,1.39-3.15,1.39s-2.44-.02-2.44-.53v-4.17h2.12c1.28,0,1.62,.15,1.79,1.13h.58v-3.24h-.54c-.1,.87-.54,1.22-1.49,1.22h-2.47v-3.89c0-.09,0-.35,.53-.35h1.84c1.43,0,2.05,.12,2.42,1.02h.79l-.06-1.82v-.09h-8.96v.56c.86,.09,1.19,.31,1.19,1.54v7.41c0,1.23-.34,1.45-1.19,1.54v.56h9.28l.02-.07,.57-2.21h-.85Z"/><path class="cls-1" d="M119.03,54.86s-5.01-10.41-5.01-10.41l-.03-.05h-.45l-.03,.06s-4.47,10.25-4.48,10.26c-.16,.47-.62,.97-1.18,1v.52h3.37v-.52h-.14c-.6,0-.88-.22-.88-.67,0-.24,.08-.48,.16-.72l.02-.06s.53-1.3,.65-1.59h4.51l.84,1.79c.16,.35,.18,.5,.18,.66,0,.37-.21,.54-.79,.58v.54h4.38v-.52c-.6-.01-.85-.29-1.13-.85Zm-7.65-3.08l1.82-4.26,2.01,4.26h-3.83Z"/><path class="cls-1" d="M108.14,44.62h-9.73v.09s-.17,2.11-.17,2.11h.73c.24-1.06,.6-1.42,2.11-1.42,1,0,1.05,.13,1.05,.37v8.36c0,1.19-.31,1.43-1.1,1.53v.57h4.52v-.56c-.84-.09-1.17-.31-1.17-1.54v-8.36c0-.25,.04-.37,1.05-.37,1.51,0,1.86,.36,2.11,1.42h.75l-.13-2.11v-.09Z"/><path class="cls-1" d="M177.69,45.16c1.02,.08,1.42,.23,1.42,1.56v7.41c0,1.37-.42,1.48-1.52,1.57v.53h5.31v-.53c-1.12-.08-1.55-.18-1.55-1.57v-7.41c0-1.35,.4-1.48,1.45-1.56v-.54h-5.11v.54Z"/><path class="cls-1" d="M162.83,41.84h-4.13v.64c1.45,.19,1.53,.93,1.53,2.85v5.09c0,3.3-1.56,5.2-4.28,5.2-3.74,0-4.22-2.63-4.22-4.93v-6.3c0-1.3,.29-1.79,1.31-1.91v-.63h-5.12v.62c1.37,.13,1.44,.82,1.44,2.6v6.18c0,1.85,.57,3.24,1.69,4.13,1,.79,2.43,1.19,4.27,1.19,4.09,0,6-2.04,6-6.44v-4.96c0-1.62,.07-2.53,1.51-2.7v-.62Z"/><path class="cls-1" d="M175.44,44.62h-3.33v.54c.86,.08,1.25,.42,1.25,1.59v5.53l-6.92-7.62-.03-.03h-2.83v.64c.79,.26,1.29,.77,1.29,.97v7.78c0,1.32-.43,1.53-1.29,1.65v.56h3.49v-.56c-.91-.11-1.15-.49-1.15-2.01v-6.32l8.08,8.95,.03,.03h.37v-9.91c0-.7,.34-1.09,1.03-1.22v-.57Z"/></g></g><rect x="0" width="72.01" height="72"/><path class="cls-1" d="M27.12,4.5h0C9.73,9.41-.44,27.55,4.47,44.94c2.37,8.42,7.89,15.42,15.54,19.7,7.64,4.28,16.49,5.33,24.9,2.95,8.41-2.37,15.41-7.88,19.69-15.53,4.29-7.65,5.34-16.49,2.97-24.9-2.37-8.42-7.89-15.41-15.54-19.69-7.65-4.29-16.49-5.34-24.91-2.97Z"/><path class="cls-1" d="M65.75,27.62c-1.13-4.01-3.01-7.68-5.6-10.91-2.5-3.12-5.54-5.69-9.05-7.66-3.5-1.96-7.29-3.21-11.26-3.72-4.1-.52-8.22-.21-12.23,.92C11.22,10.88,1.64,27.98,6.26,44.38c1.13,4.01,3.02,7.68,5.6,10.91,2.5,3.12,5.55,5.7,9.05,7.66,7.21,4.03,15.54,5.02,23.47,2.78,4.01-1.13,7.68-3.01,10.91-5.6,3.12-2.5,5.69-5.54,7.66-9.04,1.96-3.5,3.21-7.29,3.72-11.25,.52-4.1,.21-8.22-.92-12.22Zm-13.72,22.53c-3.79,4.29-9.01,6.84-14.7,7.2-5.69,.35-11.19-1.53-15.48-5.32-4.29-3.79-6.84-9.01-7.2-14.7-.35-5.69,1.53-11.19,5.32-15.48,3.79-4.29,9.01-6.84,14.7-7.2,5.69-.35,11.19,1.53,15.48,5.32,4.29,3.79,6.85,9.01,7.2,14.71,.35,5.69-1.54,11.19-5.32,15.48Z"/><g><path class="cls-3" d="M23.76,58.39c-.3,.03-.51,.29-.48,.59,.03,.3,.29,.51,.59,.48,.3-.03,.51-.29,.48-.59-.03-.3-.3-.52-.59-.49Z"/><path class="cls-3" d="M48.92,58.34c-.3-.02-.55,.21-.57,.51-.02,.3,.21,.55,.51,.57,.3,.02,.56-.21,.57-.5,.02-.3-.21-.56-.51-.58Z"/><path class="cls-3" d="M29.74,58.87s-.1-.03-.1-.03c0,0,0,0,0,0-.04,.01-.28,.03-1.74,.13,0,0-.25,.02-.28,.02,0,.02,0,.1,0,.12,.16,0,.3,0,.47,.05,.13,.04,.21,.11,.26,.2,.07,.15,.02,.35-.04,.59l-.54,2.13c-.18,.7-.23,.89-1.06,.62,0,.02-.04,.15-.05,.17,.03,0,2.57,.85,2.59,.86,0-.01,.04-.14,.05-.17-.35-.12-.51-.21-.58-.35-.02-.05-.04-.1-.04-.16,0-.15,.04-.35,.11-.63,0,0,.87-3.39,.91-3.55Z"/><path class="cls-3" d="M33.85,59.6c-.77-.08-1.2,.15-1.42,.36-.28,.26-.32,.55-.33,.63-.05,.63,.34,.96,.82,1.37l.09,.08-.05,.02c-.74,.21-1.08,.54-1.12,1.05-.03,.43,.26,1.19,1.5,1.31,.83,.08,1.76-.26,1.83-1.18,.04-.62-.32-1.02-.87-1.45l-.05-.04,.06-.02c.62-.2,.92-.51,.95-.95,.04-.61-.54-1.1-1.42-1.19Zm.26,4c-.02,.2-.1,.39-.23,.51-.14,.12-.32,.18-.52,.16-.2-.02-.36-.1-.47-.25-.11-.15-.18-.36-.18-.63v-.21c.03-.29,.15-.82,.47-.99h0s.01,0,.01,0h0c.64,.48,.95,.96,.91,1.41Zm.31-2.88c-.02,.26-.09,.61-.35,.86h0s-.02,0-.02,0h0c-.45-.32-.96-.74-.92-1.28,.01-.15,.08-.3,.19-.4,.13-.12,.3-.18,.49-.16,.19,.02,.34,.1,.45,.24,.13,.17,.19,.44,.17,.73Z"/><path class="cls-3" d="M38.52,59.62c-.48,.06-.88,.29-1.14,.64-.23,.32-.33,.71-.29,1.12,.04,.39,.2,.73,.45,.96,.26,.23,.61,.33,1.01,.28,.27-.03,.53-.14,.71-.3l.05-.04v.07c-.12,1.04-.73,1.62-1.9,2.02,0,.01,0,.14,0,.16,1.03-.13,1.92-.63,2.45-1.37,.35-.48,.53-1.04,.52-1.62v-.27c-.11-.91-.77-1.78-1.86-1.64Zm.81,2.45h0s0,.02,0,.02l-.05,.03c-.11,.06-.21,.11-.33,.12-.17,.02-.31-.02-.43-.13-.23-.2-.37-.62-.43-1.3l-.02-.31c0-.25,.04-.44,.12-.55,.06-.09,.15-.14,.25-.15,.13-.02,.26,.03,.36,.12,.38,.34,.49,1.28,.51,1.46,.03,.3,.05,.47,.04,.68Z"/><path class="cls-3" d="M43.22,58.71c-.46,.16-.81,.48-1.01,.89-.1,.21-.15,.43-.16,.66,0,.17,.02,.34,.06,.5,.19,.66,.77,1.2,1.64,.89,.27-.1,.5-.26,.65-.45l.04-.06v.08s0,.25,0,.25c-.03,.92-.5,1.54-1.5,2.13,0,.01,0,.14,0,.17,.99-.36,1.78-1.05,2.18-1.89,.17-.37,.26-.75,.28-1.13,0-.28-.03-.56-.1-.82-.25-.88-1.05-1.58-2.09-1.21Zm1.21,2.24v.02s-.05,.04-.05,.04c-.09,.08-.19,.16-.32,.2-.16,.06-.31,.05-.45-.03-.25-.14-.47-.53-.65-1.18-.03-.12-.1-.37-.09-.6,0-.21,.07-.4,.28-.47,.64-.22,1.05,1.1,1.12,1.37l.02,.06c.07,.25,.11,.4,.14,.6h0Z"/><path class="cls-3" d="M28.1,13.71c.43-.16,.79-.5,1.01-.97,.28-.61,.3-1.36,.05-2.04-.25-.68-.74-1.24-1.35-1.53-.47-.22-.96-.25-1.39-.1-1.04,.38-1.52,1.76-1.06,3.01,.46,1.25,1.72,2,2.75,1.62Zm-2.05-3.94c.09-.2,.25-.35,.46-.43,.21-.08,.42-.07,.62,.03,.62,.29,1.02,1.24,1.17,1.64,.36,.99,.47,2.14-.29,2.42-.21,.08-.42,.07-.62-.03-.62-.29-1.02-1.24-1.16-1.63-.15-.4-.45-1.38-.16-2Z"/><path class="cls-3" d="M19.2,53.1l.23-.19-.89-.9-.23,.18c.1,.12,.22,.33,.08,.44-.05,.04-.28,.14-.46,.21,0,0-.33,.12-.44,.16l-1.02-1.25,.22-.4s.04-.06,.04-.06c.06-.11,.15-.27,.23-.34,.05-.04,.16-.12,.41,.18l.22-.18c-.09-.11-.29-.36-.5-.64-.25-.34-.5-.71-.59-.85l-.22,.18c.16,.26,.18,.36,0,.68l-2.19,3.79c-.06,.11-.09,.16-.05,.22,.03,.05,.09,.04,.15,.03,.26-.03,3.61-1.13,3.61-1.13,.72-.24,1.07-.34,1.38-.12Zm-3.84,.64l.95-1.66,.85,1.05-1.8,.61Z"/><path class="cls-3" d="M21.77,55c-.2,.03-.25,0-.25,0-.03-.03-.09-.11-.16-.21l-.1-.14c-.16-.2-.31-.39-.48-.53-.87-.73-1.61-.71-2.27,.06-.56,.66-.27,1.38,.04,2.01l.1,.2c.28,.55,.52,1.02,.23,1.36-.11,.14-.27,.21-.44,.21-.17,0-.36-.07-.5-.19-.48-.4-.74-.87-.45-1.53l-.22-.18-.67,.83-.04,.05,.18,.16,.04-.03c.1-.04,.23-.02,.3,.03,.02,.01,.05,.08,.09,.13,.03,.05,.07,.12,.12,.19,.13,.22,.3,.41,.48,.57,.55,.46,1.4,.57,1.97-.12,.55-.65,.3-1.32-.03-1.99l-.07-.15c-.28-.57-.52-1.06-.17-1.47,.11-.13,.27-.21,.45-.21,.23,0,.48,.09,.69,.28,.52,.44,.62,.98,.54,1.48l.21,.17,.63-.78,.04-.05-.21-.17h-.03Z"/><path class="cls-3" d="M12.24,50.93l3.12-1.77c.29-.17,.53-.13,.69,.13l.02,.03,.23-.18-.32-.5-.34-.58-.24,.13c.08,.16,.11,.29,.08,.4-.03,.12-.13,.22-.29,.31,0,0-2.33,1.32-2.91,1.65l2.24-4.69v-.03s-.11-.27-.11-.27l-3.54,1.98c-.22,.12-.35,.16-.44,.13-.07-.02-.15-.09-.23-.24l-.26,.13c.05,.12,.18,.41,.25,.57,.07,.15,.2,.42,.26,.55l.25-.13c-.1-.19-.13-.31-.1-.41,.03-.1,.13-.2,.33-.31l2.22-1.24-1.82,3.74,.36,.61,.33,.53,.25-.13s0-.02-.01-.03c-.04-.11-.15-.36-.04-.42Z"/><path class="cls-3" d="M7.96,39.44c-.02-.35,0-.38,.53-.41,0,0,3.17-.2,3.17-.2,.54-.04,.56,0,.59,.33l.28-.03-.13-1.64-.27,.02c.02,.4-.04,.44-.57,.48,0,0-1.17,.08-1.45,.1l-.03-.46c-.02-.14,.14-.23,.42-.36,0,0,1.82-.91,1.82-.91l.04-.02,.03-1.19-.27,.02h0c.02,.34-.23,.41-.32,.47l-1.79,1s-.09,.07-.12,.11c-.12-.37-.46-.98-1.07-.95-.66,.05-1.39,.45-1.28,1.89l.15,1.77h.3Zm.87-2.8c.66-.04,.99,.28,1.06,.89,0,0,.03,.47,.04,.57l-1.97,.13-.04-.57c-.05-.6,.25-.97,.91-1.02Z"/><path class="cls-3" d="M7.81,32.28c.2,.15,3.34,1.62,3.34,1.62,.69,.31,.87,.47,.92,.83l.29-.02,.1-1.22-.3-.02h0c-.02,.15-.08,.39-.27,.37-.07,0-.19-.06-.38-.14,0,0-.31-.14-.42-.18l.23-1.57,.47-.14s.07-.02,.07-.02c.12-.04,.25-.06,.35-.06,.05,0,.2,0,.16,.24v.03s.29,.02,.29,.02l.27-1.53-.25-.02c-.06,.19-.14,.22-.51,.32l-4.25,1.24c-.13,.04-.18,.05-.19,.12,0,.05,.03,.09,.08,.13Zm3.14-.21l-.19,1.31-1.69-.77,1.88-.54Z"/><path class="cls-3" d="M8.73,28.79c.05-.1,.16-.34,.28-.3l3.4,1.14c.32,.11,.45,.2,.37,.51v.02s.29,.04,.29,.04l.31-1.09-.27-.1c-.06,.17-.14,.27-.26,.32-.11,.05-.26,.05-.43-.01l-3.16-1.07,4.94-1.44h.03s0-.03,0-.03l.07-.19,.02-.05-.05-.02-3.78-1.28c-.46-.16-.45-.34-.34-.63l-.27-.1-.48,1.21,.27,.1c.14-.35,.25-.45,.68-.3l2.39,.81-3.92,1.11h-.03s-.01,.03-.01,.03l-.33,1.25,.27,.1s0-.02,.01-.03Z"/><path class="cls-3" d="M12.42,24.73c1.15,.66,2.6,.42,3.14-.53,.23-.4,.32-.73,.36-.94,.02-.09,.03-.19,.04-.28,.01-.09,.03-.2,.04-.23,.04-.08,.23-.07,.39-.07h.04s.02-.03,.02-.03l.04-.07,.03-.05-.05-.03-1.25-.72-.16,.28c.31,.42,.69,1.24,.25,1.99-.11,.19-.28,.32-.49,.38-.66,.18-1.58-.29-1.94-.5-.79-.45-1.24-.89-1.37-1.35-.08-.28-.03-.58,.14-.88,.31-.54,1.06-.66,1.69-.59l.19-.33-1.16-.67-.05-.03-.03,.05-.06,.11-.02,.04s.02,.03,.02,.03l.02,.03c.07,.09,.11,.15,.06,.24-.11,.19-.21,.27-.34,.36l-.07,.06c-.16,.13-.35,.31-.6,.74-.23,.4-.28,.89-.14,1.38,.18,.65,.64,1.23,1.27,1.6Z"/><path class="cls-3" d="M14.37,18.67l2.51,2.07c.39,.32,.38,.35,.12,.67l.21,.18,1.09-1.32-.21-.18c-.26,.31-.29,.32-.68,0,0,0-2.51-2.07-2.51-2.07-.39-.32-.38-.35-.12-.68l-.21-.18-1.09,1.32,.21,.18c.26-.31,.29-.32,.68,0Z"/><path class="cls-3" d="M18.58,17.11l.15-.05c.6-.21,1.12-.38,1.48,.02,.12,.13,.17,.29,.15,.47-.03,.23-.16,.46-.37,.65-.51,.46-1.06,.48-1.55,.34l-.2,.18h0s.69,.73,.69,.73l.05,.05,.2-.19v-.03c0-.21,.03-.25,.03-.25,.03-.02,.13-.08,.23-.13l.15-.08c.21-.12,.42-.25,.59-.4,.84-.77,.92-1.5,.24-2.26-.58-.64-1.33-.45-2-.23l-.21,.08c-.58,.2-1.08,.37-1.38,.05-.12-.13-.17-.29-.15-.47,.02-.17,.11-.34,.26-.47,.46-.42,.97-.62,1.58-.24l.21-.19-.74-.78-.05-.05-.18,.15,.02,.05c.02,.1,0,.24-.07,.29-.02,.01-.08,.04-.14,.07-.06,.03-.13,.05-.2,.09-.23,.1-.45,.24-.63,.4-.53,.48-.75,1.31-.15,1.97,.58,.64,1.27,.47,1.98,.23Z"/><path class="cls-3" d="M23.75,15.77c.39-.24,.63-.49,.77-.65,.06-.08,.12-.16,.17-.23,.05-.07,.12-.17,.14-.18,.08-.05,.23,.04,.38,.13l.03,.02s.03-.02,.03-.02l.07-.04,.05-.03-.03-.05-.75-1.23-.28,.17c.06,.52,0,1.42-.73,1.87-.19,.12-.4,.15-.62,.1-.66-.16-1.25-1.01-1.47-1.37-.48-.77-.66-1.37-.55-1.83,.06-.29,.25-.52,.54-.7,.53-.32,1.25-.07,1.78,.29l.32-.19-.68-1.12-.03-.05-.05,.03-.11,.06-.04,.02s0,.04,0,.04v.03c.03,.12,.01,.15-.08,.2-.18,.11-.31,.13-.47,.16l-.09,.02c-.2,.04-.46,.1-.88,.36-.39,.24-.67,.65-.79,1.15-.16,.65-.03,1.39,.35,2.01,.7,1.14,2.08,1.61,3.02,1.04Z"/><path class="cls-3" d="M33.1,10.44l.16,.05c.6,.18,1.13,.35,1.19,.88,.02,.18-.03,.34-.15,.47-.15,.17-.4,.28-.68,.31-.67,.08-1.13-.22-1.44-.62l-.28,.03,.13,.98v.07s.28-.04,.28-.04l.02-.03c.12-.17,.17-.18,.17-.18,.04,0,.14,.01,.26,.03l.17,.03c.24,.02,.48,.04,.71,.02,1.13-.13,1.63-.68,1.52-1.69-.1-.86-.82-1.15-1.49-1.35l-.21-.06c-.59-.18-1.1-.33-1.14-.77-.02-.18,.03-.34,.15-.47,.12-.13,.29-.21,.48-.23,.62-.07,1.14,.06,1.42,.73l.28-.03-.14-1.07v-.07s-.25,.02-.25,.02v.05c-.05,.1-.15,.19-.24,.2-.02,0-.09-.01-.15-.03-.06-.01-.13-.03-.22-.05-.25-.05-.5-.07-.75-.04-.71,.08-1.37,.62-1.27,1.52,.1,.85,.75,1.12,1.47,1.35Z"/><path class="cls-3" d="M37.01,7.79c.1,0,.12,.03,.12,.23,0,0-.15,3.55-.15,3.55-.02,.49-.05,.52-.52,.5l-.02,.27,1.82,.08,.02-.28h0c-.48-.03-.51-.06-.49-.55,0,0,.17-3.54,.17-3.54,.01-.2,.04-.22,.14-.22,.41,.02,.76,.3,1.02,.83l.32,.02-.13-1.12-3.47-.16-.23,1.08,.33,.02c.31-.5,.68-.74,1.08-.72Z"/><path class="cls-3" d="M38.94,12.55l1.26,.18,.05-.29c-.14-.03-.38-.11-.34-.3,.02-.06,.11-.23,.21-.41,0,0,.18-.29,.24-.4l1.58,.33,.07,.51s.01,.07,.01,.07c.02,.12,.05,.35,.03,.46-.01,.06-.05,.2-.44,.11h0s-.04,.18-.04,.18c.29,.08,1.5,.43,1.79,.52l.06-.27c-.3-.1-.37-.16-.43-.53l-.69-4.37c-.03-.13-.04-.18-.1-.2-.05-.01-.1,.02-.14,.07-.18,.19-2.08,3.16-2.08,3.16-.41,.65-.63,.85-1.01,.88l-.03,.29Zm2.62-3.13l.31,1.88-1.32-.28,1.01-1.6Z"/><path class="cls-3" d="M46.02,14.24h0c-.45-.19-.46-.22-.28-.68,0,0,1.29-3.2,1.29-3.2,.08-.19,.11-.2,.21-.16,.39,.16,.62,.55,.69,1.15l.29,.11,.26-1.18-3.23-1.25-.59,.96,.3,.12c.47-.38,.9-.49,1.28-.34,.09,.04,.11,.07,.03,.26,0,0-1.32,3.29-1.32,3.29-.18,.46-.22,.38-.66,.2l-.07,.27,1.71,.69,.11-.26Z"/><path class="cls-3" d="M48.06,14.66c-.29,.46-.33,.45-.56,.3l-.16,.25,2.76,1.71,.04,.03,.03-.03,.46-.49-.37-.23c-.4,.16-.69,.06-1.16-.24,0,0-.47-.29-.47-.29-.1-.06-.1-.11,.04-.33,0,0,.84-1.34,1-1.61l.21,.13c.55,.34,.84,.4,.68,.89l.23,.15,.62-.99-.24-.15c-.44,.36-.78,.07-1.12-.15,0,0-.13-.08-.21-.13l.96-1.53,.68,.43c.28,.17,.56,.37,.63,.75l.31,.18,.14-.56v-.04s-.03-.02-.03-.02l-2.6-1.62-.16,.25c.23,.15,.27,.18-.02,.64l-1.68,2.72Z"/><path class="cls-3" d="M53.23,19.79c.43,.44,.9,.64,1.33,.65,.36,0,.72-.16,1.05-.48,0,0,1.8-1.75,1.8-1.75,.18-.17,.29-.24,.38-.24,.08,0,.15,.05,.27,.16l.17-.16-.79-.9-.19,.17c.26,.27,.29,.41-.02,.72l-1.86,1.81c-.65,.64-1.36,.37-1.81-.09-.22-.22-.45-.58-.45-.82,0-.33,.2-.68,.6-1.07,0,0,1.72-1.67,1.72-1.67,.36-.35,.39-.34,.68-.05l.2-.19-1.2-1.1-.2,.19c.08,.09,.12,.17,.12,.24,0,.11-.08,.23-.25,.39l-1.65,1.59c-.4,.39-.61,.79-.62,1.19,0,.41,.3,1,.7,1.41Z"/><path class="cls-3" d="M58.89,19.75s-2.99,2-2.99,2c-.28,.18-.52,.16-.7-.08l-.02-.03-.22,.19,.36,.48,.38,.54,.24-.14c-.1-.15-.14-.29-.11-.41,.03-.12,.11-.23,.27-.33,0,0,2.25-1.5,2.81-1.86l-1.9,4.8v.03s.13,.26,.13,.26l3.37-2.18c.21-.14,.34-.19,.44-.17,.07,.02,.24,.23,.33,.38l.25-.15c-.06-.11-.3-.56-.38-.71-.08-.15-.23-.41-.3-.53l-.24,.15c.11,.19,.15,.31,.13,.41-.02,.1-.12,.21-.31,.33l-2.13,1.39,1.55-3.86-.4-.58-.38-.51-.24,.15s0,.02,.01,.03c.05,.1,.17,.34,.07,.41Z"/><path class="cls-3" d="M61.62,25.41s-3.04,1.2-3.04,1.2c-.47,.19-.51,.17-.67-.22l-.25,.09h0s.64,1.6,.64,1.6l.26-.1c-.15-.38-.14-.42,.32-.61,0,0,3.06-1.22,3.06-1.22,.47-.19,.49-.16,.65,.21l.26-.1-.66-1.57-.26,.1h0c.15,.39,.15,.42-.32,.61Z"/><path class="cls-3" d="M63.25,28.9s.11,.02,.19,.39l.28-.06-.5-1.71-.28,.06c.07,.31,.02,.39-.4,.67,0,0-3.45,2.37-3.45,2.37l-.03,.02v.04s.03,.1,.03,.1v.04s.05,0,.05,0l4.19,.57c.38,.05,.54,.15,.64,.41l.28-.06h0s-.21-1.11-.21-1.11l-.29,.06c.03,.2,.01,.31-.17,.35-.04,0-.25,.02-.56-.02l-2.5-.31,2.57-1.73c.05-.03,.1-.07,.14-.07Z"/><path class="cls-3" d="M63.61,38.58s-3.17-.45-3.17-.45c-.55-.08-.55-.11-.51-.46h0l-.28-.02-.21,1.64,.27,.04c.06-.41,.12-.44,.66-.36,0,0,1.16,.16,1.44,.2l-.06,.46c-.01,.14-.18,.2-.48,.27l-1.97,.53h-.04s-.26,1.15-.26,1.15l.26,.04c.04-.32,.3-.35,.41-.38,0,0,1.96-.62,1.96-.62,.05-.01,.1-.04,.14-.08,.04,.39,.26,1.06,.85,1.14,.66,.09,1.48-.17,1.65-1.59l.22-1.76-.29-.04c-.05,.35-.07,.38-.6,.3Zm.38,1.46c-.08,.59-.44,.9-1.1,.81-.65-.09-.92-.48-.86-1.08,0,0,.06-.46,.07-.56l1.96,.27-.07,.57Z"/><path class="cls-3" d="M62.16,43.57c-.81-.29-1.38,.16-1.9,.7l-.12,.12c-.43,.46-.81,.86-1.32,.67-.16-.06-.29-.18-.35-.35-.08-.21-.08-.48,.02-.75,.23-.64,.71-.92,1.2-1.02l.09-.25-.95-.32-.06-.02-.09,.26,.02,.03c.1,.18,.09,.23,.09,.23-.01,.04-.08,.13-.14,.22l-.1,.14c-.13,.21-.25,.42-.33,.63-.39,1.07-.11,1.76,.84,2.11,.81,.3,1.43-.21,1.91-.71l.15-.16c.41-.45,.78-.84,1.19-.68,.17,.06,.29,.18,.35,.34,.06,.16,.07,.36,0,.54-.21,.59-.56,1-1.28,.95l-.09,.27,1.02,.35,.07,.02,.09-.22-.04-.03c-.07-.09-.1-.21-.08-.29,0-.02,.05-.07,.09-.12,.04-.05,.09-.11,.14-.17,.16-.2,.28-.42,.37-.65,.24-.67,.05-1.51-.79-1.81Z"/><path class="cls-3" d="M60.48,48.99s-2.87-1.58-2.87-1.58c-.44-.24-.44-.28-.25-.64l-.23-.13-.82,1.5,.24,.14c.2-.36,.23-.38,.67-.14l2.88,1.58c.44,.24,.43,.28,.24,.65h0s.24,.14,.24,.14h0s.81-1.53,.81-1.53l-.24-.14c-.2,.36-.23,.38-.67,.14Z"/><path class="cls-3" d="M58.71,51.25c.25,.55,.24,1,0,1.33-.06,.08-.09,.09-.26-.04l-2.81-2.12c-.39-.29-.4-.33-.11-.72h0s-.19-.15-.19-.15l-1.1,1.48,.2,.16c.29-.38,.33-.38,.72-.09l2.8,2.11c.16,.12,.16,.16,.1,.24-.25,.33-.68,.46-1.28,.38l-.19,.25,1.06,.55,2.04-2.81-.78-.82-.19,.25Z"/><path class="cls-3" d="M56.02,55.48s-2.11-.67-2.26-.71l-.96-1.03c-.34-.37-.34-.4,.01-.73l-.19-.21-1.34,1.26,.18,.2c.36-.32,.39-.32,.73,.05,0,0,1,1.07,1.11,1.19l.41,1.73v.04c.09,.42,.13,.64-.16,.91l.19,.21,.86-.73-.19-.21h0c-.15,.15-.26,.18-.32,.11-.02-.02-.05-.07-.07-.19,0,0-.33-1.33-.4-1.68,.34,.11,1.68,.59,1.68,.59,.11,.04,.13,.05,.14,.06,.02,.02,.07,.08-.19,.33l.19,.2,1.31-1.32-.18-.21c-.27,.25-.31,.24-.54,.18Z"/><path class="cls-3" d="M13.18,43.29l.24-.05-.45-1.67-.28,.07c.14,.46,.06,.51-.43,.64l-1.48,.39-.05-.15c-.17-.6-.36-1.05,.11-1.19l-.07-.28-1.12,.31,.07,.27c.39-.04,.61,.31,.73,.97,0,0,.03,.09,.05,.15l-1.51,.41c-.19,.05-.22,.06-.3-.27-.16-.64-.43-1.36-.15-1.72l-.09-.35-.55,.35-.04,.02v.04s.83,3.21,.83,3.21l.27-.05c-.08-.32,.02-.37,.48-.49l3.05-.8c.47-.12,.56-.12,.68,.2Z"/><path class="cls-3" d="M63.65,33.53l-3.19,.13c-.54,.02-.55-.02-.57-.3h-.29s.13,3.25,.13,3.25v.05h.05s.67,.11,.67,.11l-.02-.43c-.35-.24-.43-.54-.45-1.09,0,0-.02-.55-.02-.55,0-.12,.04-.14,.3-.15,0,0,1.59-.06,1.89-.07v.24c.03,.64,.15,.92-.35,1.06v.28s1.17-.05,1.17-.05v-.28c-.55-.16-.5-.61-.52-1.01,0,0,0-.16,0-.25l1.8-.07,.03,.8c.01,.33,0,.67-.27,.94l.02,.36,.54-.19h.04s0-.06,0-.06l-.11-3.06h-.29c0,.28,0,.33-.55,.35Z"/></g><path class="cls-3" d="M24.65,8.13C9.28,14.39,1.87,32,8.14,47.37c1.53,3.76,3.76,7.11,6.62,9.95,2.76,2.75,5.99,4.91,9.6,6.43,7.42,3.12,15.6,3.17,23.03,.13,3.76-1.53,7.1-3.76,9.95-6.62,2.75-2.76,4.91-5.99,6.43-9.6,1.52-3.61,2.31-7.41,2.36-11.3,.05-4.03-.7-7.98-2.23-11.73C57.63,9.26,40.03,1.86,24.65,8.13ZM63.46,47.54c-1.5,3.57-3.64,6.76-6.36,9.49-2.81,2.83-6.12,5.03-9.84,6.54-7.35,3-15.44,2.95-22.78-.13-3.57-1.5-6.77-3.64-9.5-6.36-2.83-2.81-5.03-6.12-6.55-9.84C2.24,32.04,9.57,14.63,24.78,8.43c15.21-6.2,32.62,1.12,38.82,16.32,3,7.35,2.95,15.44-.13,22.78Z"/><path class="cls-3" d="M56.83,27.29c-4.8-11.47-18.04-16.9-29.52-12.1-5.55,2.32-9.87,6.67-12.15,12.26-2.29,5.58-2.27,11.7,.06,17.25,4.8,11.47,18.03,16.91,29.51,12.11,11.48-4.8,16.91-18.04,12.1-29.52Zm-12.23,29.21c-11.31,4.72-24.35-.63-29.08-11.94-2.29-5.46-2.31-11.5-.05-17,2.25-5.5,6.51-9.79,11.98-12.08,11.31-4.73,24.36,.62,29.08,11.92,4.73,11.3-.62,24.35-11.93,29.09Z"/><path class="cls-3" d="M66.71,27.35c-1.17-4.14-3.11-7.92-5.78-11.25-2.58-3.22-5.72-5.88-9.33-7.9-3.62-2.02-7.52-3.31-11.61-3.83-4.23-.54-8.48-.22-12.62,.95C10.45,10.09,.57,27.73,5.33,44.65c1.17,4.14,3.11,7.92,5.78,11.26,2.58,3.22,5.72,5.88,9.34,7.9,3.61,2.02,7.52,3.31,11.6,3.83,4.23,.54,8.47,.21,12.61-.95,4.13-1.16,7.92-3.11,11.25-5.78,3.22-2.58,5.88-5.71,7.9-9.33,2.02-3.62,3.32-7.52,3.83-11.61,.54-4.23,.22-8.48-.95-12.61Zm-.02,12.49c-.5,3.96-1.75,7.75-3.72,11.25-1.97,3.5-4.54,6.55-7.66,9.04-3.23,2.59-6.9,4.47-10.91,5.6-7.93,2.24-16.26,1.25-23.47-2.78-3.51-1.96-6.55-4.54-9.05-7.66-2.59-3.23-4.47-6.9-5.6-10.91C1.65,27.98,11.23,10.88,27.63,6.26c4.01-1.13,8.12-1.44,12.23-.92,3.96,.5,7.75,1.75,11.26,3.72,3.5,1.96,6.55,4.54,9.05,7.66,2.59,3.23,4.47,6.9,5.6,10.91,1.13,4.01,1.44,8.12,.92,12.22Z"/><g><path class="cls-3" d="M57.37,34.67c-.35-5.7-2.91-10.92-7.2-14.71-4.29-3.79-9.78-5.67-15.48-5.32-5.7,.35-10.92,2.91-14.7,7.2-3.79,4.29-5.67,9.78-5.32,15.48,.35,5.7,2.91,10.92,7.2,14.7,4.29,3.79,9.78,5.67,15.48,5.32,5.69-.35,10.91-2.91,14.7-7.2,3.79-4.29,5.68-9.79,5.32-15.48ZM20.73,22.5c3.61-4.09,8.6-6.53,14.03-6.87,5.43-.34,10.68,1.46,14.77,5.08,3.39,2.99,5.64,6.92,6.51,11.26-2.65-.33-6.15-.73-8.27-.86l-.02-2.31-.08-.06,.02-3.51-.08-.07v-.28c.91,1.35,3.15,4.34,5.29,4.74,0,0,1.02,.28,2.57,.14-.03-.09-.06-.17-.08-.26-1.22,.16-2.4-.13-2.42-.13-2.03-.38-4.4-3.62-5.35-5.05v-1.95l-.07-.1,.02-1.24c1.11,2.4,3.44,6.55,6.5,7.18,.3,.06,.59,.1,.87,.11-.04-.1-.08-.2-.13-.3-.24-.01-.49-.05-.74-.1-2.98-.63-5.65-5.53-6.5-7.26l.02-.91-.41-.32v-.02s-.02,0-.02,0h0s0,0,0,0l-.61,.11v.18s-.42,.27-1.4,.38l-.07-.13-.36,.07-.07-.03c-.14,.34-1.46,3.17-5.52,6.08-2.02-2.15-3.99-4.2-4.39-4.56-1.79-1.62-3.16-2.47-5.16-1.67-.4,.16-1.2,.57-1.2,.57,0,0-6.96,3.86-7.67,3.94-.76,.09-1.19-.11-1.31-.19,.42-.58,.86-1.15,1.35-1.69Zm25.58-1.67c-.21,.49-.52,1.09-.93,1.77-.22,0-.37-.02-.37-.02v-1.45c.43-.38,1.09-.45,1.36-.46-.02,.05-.04,.1-.06,.15Zm.1,.13c.03-.07,.06-.13,.08-.19v1.53c-.25,.16-.54,.24-.79,.28,.29-.58,.52-1.12,.71-1.61Zm-1.4,7.71v-1.94c0-.06,.02-.11,.05-.15,.13-.18,.48-.23,.48-.23h.61c.3,0,.28,.38,.28,.38v2s-.86,.11-1.42-.06Zm1.3,1.52c0,.14,0,.49-.01,.9-.08,0-.14,.01-.2,.02-.47,.07-.78,.1-1.11,.14v-1.19c.09-.1,.22-.2,.38-.22,.4-.05,.96-.11,.94,.35Zm-.09-4.87c-.06,0-.96,.01-1.08,.01-.03,0-.1-.01-.11-.02v-1.54c.44-.46,1.47-.35,1.47-.35,0,0,.02,1.55,0,1.67-.02,.13-.21,.22-.28,.22Zm-9.29,2.38c-.35-.09-.93-.33-.93-.33-1.66-3.07-6.1-3.63-9.31-2.42-2.89,1.09-4.77,3.89-5.49,6.5-.4,.12-.86,.46-1.19,.92-1.31-.03-2.31-.03-3.04-.08-.35-.02-1-.09-.94-.46,.47-2.27,1.33-4.44,2.55-6.43,0,0,.85,.42,2.11,.3,1.78-.17,8.18-4.19,8.93-4.42,1.94-.6,3.41,.49,4.35,1.35,.43,.39,1.45,1.8,3.51,3.74,1.35,1.27,2.55,1.71,5.26,5.36-.21,.04-.64,.12-1.65,.28-1.39,.17-1.55,.2-3.48,.4,0-.19,.02-.46,.06-.77,.09-.67,.5-1.5,.82-2.19,.44-.96-.89-1.5-1.56-1.75Zm-2.87,12.49c.08,0,1.01-.01,1.45,0,.15,0,.19,.07,.15,.24,0,0,0,0,0,0h-.95s-.05,.01-.05,.04v.04s.01,.05,.04,.06l.88,.25c-.1,.4-.24,.86-.47,1.02-.94,.92-2.5,.11-3.46-.05-.59-.16-1.24-.32-1.61-.85-.7-.85-1.52-3.19-1.52-3.19-.15-.46-.43-1.13-.79-1.03-.07,.1,.07,1.16,.11,1.22-.33-.03-.65-.07-.91-.27-.4-.51-.56-1.6-.58-2.3,3.03-.93,5.96-5.11,10.27-3.78,0,0,0,1.14,.06,2,.09,.85,.47,2.75,.71,3.72,0,0,.06,.2-.09,.27-.05,.02-1.19,.21-1.43,.29-.11,.04-.14,.18-.14,.21,0,.03,.01,1.17,.01,1.33s-.02,.36-.24,.36c-.07,0-.87,0-1.44,0-.2,0-.22,.15-.22,.19,0,0-.01,.24,.23,.24Zm-2.41,10.85c-1.42,2.19-2.26,3.87-2.43,4.22-.05-.02-.09-.03-.14-.05-.45-.54-2.29-2.74-3.34-4.28-1.68-2.47-4.16-3.9-4.16-3.9,1.32,.93,3.58,4.39,5.39,7.28-.78-.39-1.54-.83-2.27-1.32-.9-2.24-2.03-4.49-3.32-6.06,.31,0,.63,.13,.95,.24,2.18,.89,6.41,5.64,6.41,5.64,0,0,4.55-5.37,5.29-6.01,.79-.68,.89-.73,1.43-.74-.83,2.37-1.56,6.6-1.9,10.22-.97-.11-1.92-.3-2.85-.55,.35-.88,.76-1.85,1.18-2.76,1.32-2.79,3.16-6.54,3.16-6.54,0,0-1.8,2.14-3.41,4.61Zm-10.46-13.63c-.66-.32-.44-1.48-.44-1.48,.72,.57,2.06,.83,3.85,.32,.14,.14,.13,.28,.15,.48-.88,.43-2.29,1.31-3.56,.69Zm3.84,.15s.11,.06,.12,.28c-2,1.51-2.86,1.79-3.72,1.56-.7-.21-.35-.92-.35-.92,0,0,1.15,.82,3.96-.92Zm-4.27,2.54c1.74,1.29,4.65-1.61,4.65-1.61,.1,.09,.07,.34,.07,.34-.23,.44-1.7,1.59-1.7,1.59-.75,.55-1.83,1.17-2.77,.9-1.03-.39-.24-1.22-.24-1.22Zm5.3-1.04l.12-.16s.36,.19-.13,.95c-3.36,5.28-6.67,3.4-6.67,3.4-.86-.44-.3-1.1-.3-1.1,.22-.3,.47-.33,.78-.37,0,0,2.31,2.41,6.2-2.73Zm2.61,10.57c-1.07-1.37-2.35-2.47-3.82-3.38-.61-.34-1.28-.77-1.93-1.02v-.06c1.29-.64,2.56-1.35,3.33-2.69,0,0,.75-1.35,1.41-3.71,.26-.13,.56,.36,.61,.72,.71,2.22,.86,7.74,1.12,8.1,.06-.06,1.39-1.97,2.4-2.71,.46-.16,.83-.1,1.24,.13-1.6,1.15-4.27,4.49-4.36,4.62Zm7.46-19.08c-1.99-.58-4.45,.12-6.07,1.38-1.95,1.4-3.71,2.67-5.86,3.06-.94,.17-2,.21-2.66-.2-.64-.52-.95-1.29-.75-2.05,.13-.4,.26-.57,.53-.71,.06,.43,.41,.85,.96,1.07,1.74,.7,3.67-.37,5.02-1.39,1.3-.95,2.4-1.61,4.04-2.56,1.6-.82,3.66-1.07,5.37-.38,0,0,.33,.16,.44,.21,.1,.05,.1,.09,.1,.09,.01,.02,.02,.05,0,.13-.09,.52-.28,.9-.46,1.35-.05,.11-.55,.03-.66,0Zm-11.49,.98c1.36-.1,2.4-.33,2.4-.33,0,0-2.3,1.22-3.55,1.22s-1.31-.98-.84-1.36c0,0,.63,.56,1.98,.47Zm-1.78-1.53c1.04-2.09,3.04-3.75,5.27-4.39,1.96-.46,4.17-.3,5.87,.88,.32,.22,.7,.58,.94,.88-2.54,0-4.79,1.19-6.75,2.79-1.36,.56-3.05,1.05-4.28,.51-.36-.07-.77-.49-1.04-.67Zm18.18-1.81c1.51-1.24,2.6-2.45,3.41-3.57v.63l-.12,.07v3.3l-.1,.05v2.7c-.11,.02-.24,.04-.37,.07-.23-.38-1.38-1.69-2.81-3.24Zm-.33-.36c-.39-.43-.8-.87-1.21-1.31,3.39-2.53,4.71-5.1,5.15-6.18l-.11,2.18-.09,.08v1.37c-.89,1.19-2.1,2.51-3.74,3.86Zm-24.93,5.5h3.81c-.16,.72-.07,1.53,.59,2.23,0,0-.72,1.24,.39,2.18-.39,.61-.39,.97-.16,1.65-.4,.17-.85,.98-.68,1.54-.92,.19-1.84,.88-2.08,1.87-.1,.79,.1,1.29,.59,1.81,.46,.44,1.04,.75,1.6,.93-.5,.03-1.07,.05-1.75,.22-1.41-2.58-2.24-5.46-2.43-8.48-.08-1.33-.04-2.66,.13-3.96Zm2.94,13.53s.05,0,.07,.01c1.39,.16,2.66,2.08,3.69,4.42-1.48-1.31-2.74-2.8-3.77-4.43Zm18.56,9.53c-.71,.04-1.41,.05-2.1,.02,.54-4.36,1.37-10.16,2.03-10.32,.66-.16,2.32,.14,3.25,.8-.17,.31-.26,.53-.36,.86-.36,1.01-.67,2.11-.92,3.2,0,0-.78,3.39-.8,4.82,0,.16,0,.34-.02,.52-.36,.04-.72,.07-1.08,.1Zm4.49-7.56c1.46,1.43,2.58,2.89,4.6,4.79-2.05,1.21-4.3,2.05-6.67,2.48,.26-2.21,.82-4.85,2.08-7.27Zm9.54,.69c-.17,.19-.34,.38-.52,.56l.03-1.62h-5.71l.14,1.06,2.79,2.98c-.17,.12-.34,.25-.51,.37-1.79-1.78-2.28-2.8-4.16-4.6-.45-.5-1.71-1.88-2.61-2.36-.9-.48-3.56-.88-5.24-1.37,0,0-.89-.24-2.4-.67-.74-.21-1.25-.4-1.58-.55-.02-.01-.09-.08-.09-.24s.07-.19,.09-.19h0c.57,.07,3.88,.8,4.74-.19,.1-.13,.13-.29,.14-.37,0-.46,.03-1.86,.05-2.67h0s0-.02,0-.02c0-.25,.01-.43,.02-.52,0-.02,0-.05,0-.07,0-.15,0-.25,0-.35,0-.14,.16-.2,.17-.21,.1-.06,1.79-.14,1.71-.63-.24-1.36-.77-3.31-.78-4.49l18.65-.03c.06,.47,.11,.93,.14,1.41,.34,5.43-1.47,10.68-5.08,14.77Z"/><g><path class="cls-3" d="M36.84,51.72s-.04,.02-.04,.04l-.19,1.23s0,.04,.03,.05c.02,0,.59,.21,1.13,.14,.02,0,.04-.02,.04-.04,.09-.7,.15-1.13,.16-1.14,0-.02,0-.03-.02-.04-.38-.26-1.08-.23-1.1-.23Z"/><path class="cls-3" d="M38.6,48.84c-.39-.31-1.18-.35-1.21-.35-.02,0-.04,.01-.04,.04-.07,.32-.15,.71-.24,1.17,0,.02,0,.04,.03,.05,0,0,.55,.19,1.12,.25,.02,0,.04,0,.05-.03l.31-1.07s0-.04-.01-.05Z"/></g><polygon class="cls-3" points="43.86 47.28 52.07 47.28 52.37 46.4 43.55 46.4 43.86 47.28"/><path class="cls-3" d="M45.17,46.11c-.35-.35-.53-.98-.53-1.76,0-.71,.15-1.51,.47-2.21,.7-1.54,2.01-2.39,2.07-2.42l.47-.3-.26,.49s-.51,.97-.9,1.97c-.2,.49-.28,.96-.28,1.39,0,.86,.34,1.55,.78,1.99,.11-.35,.29-.99,.29-1.7,0-.27-.03-.54-.09-.81l-.07-.3,.28,.13s.75,.37,1.26,1.64c.24-.35,.38-.7,.4-1.25,0-.1,0-.2,0-.29,0-1.54-.6-2.44-1.07-3.38-.49-.97-.78-1.36-.85-2.21-.03-.38,.19-1.04,.46-1.31,0,0-.27,.28-.11,1.04,.09,.44,.53,1.18,.82,1.59,.34,.47,.77,1.05,1.13,1.64,.21,.29,.58,.89,.82,1.69,.09,.29,.14,.53,.15,.75,.15,1.33-.27,2.49-1.4,3.61h.63c1.2-.78,2.18-2.11,2.09-3.73-.12-2.18-1.43-3.68-2.74-5.45-1.25-1.7-.29-2.71-.29-2.71,0,0-2.15,1.14-3.65,3.41-.9,1.37-1.6,2.99-1.84,4.47-.29,1.87,.55,3.47,1.95,4.01Z"/><path class="cls-3" d="M52.4,42.21c.18,1.75-.62,3.18-1.86,3.9h1.21c3.14-1.66,.62-5.27-.03-6.29-.7-1.12,.55,1.18,.68,2.39Z"/><polygon class="cls-3" points="44.68 48.09 51.25 48.09 51.45 47.54 44.48 47.54 44.68 48.09"/><path class="cls-3" d="M34.95,34.8c.4,.22,.39,1.7,.59,1.68,.08,.04,.23,.02,.26-.08-.2-.59-.4-1.99-.18-2.38,.02-.17,.35-.35,.16-.52-.52-.34-.93-.79-1.59-.79-1.03,.59-1.98,1.22-2.73,2.19-.03,.09-.12,.26,.02,.33,0,0,.1-.02,.18-.12,.5-.48,1.05-.86,1.64-1.2,.32-.19,.83-.42,1.19-.21-.31,.19-.54,.46-.85,.65-.17,.2-.55,.34-.51,.61,.61-.05,1.67-.2,1.83-.17Z"/></g></svg>